<?xml version="1.0" encoding="utf-8"?>
<!-- Generator: Adobe Illustrator 25.4.1, SVG Export Plug-In . SVG Version: 6.00 Build 0)  -->
<svg version="1.1" id="Layer_1" xmlns="http://www.w3.org/2000/svg" xmlns:xlink="http://www.w3.org/1999/xlink" x="0px" y="0px"
	 viewBox="0 0 1109.45 216" style="enable-background:new 0 0 1109.45 216;" xml:space="preserve">
<style type="text/css">
	.st0{fill:url(#SVGID_1_);}
	.st1{fill:url(#SVGID_00000116229536497363412360000011981680650539297672_);}
	.st2{fill:url(#SVGID_00000003796832741977442990000017609923149733704876_);}
	.st3{fill:url(#SVGID_00000182519740542448520300000009747542188400322230_);}
	.st4{fill:url(#SVGID_00000011023015940940386400000017711754009037880732_);}
	.st5{fill:url(#SVGID_00000026140019935419200480000007635407109258448309_);}
	.st6{fill:url(#SVGID_00000057132050361833880610000005014610082551794844_);}
	.st7{fill:url(#SVGID_00000076603365457913292650000010003046218901774772_);}
	.st8{fill:url(#SVGID_00000035490085740077778810000004557297143304988056_);}
	.st9{fill:url(#SVGID_00000008118145334880120880000004361974937910340543_);}
	.st10{fill:url(#SVGID_00000037659944302453600640000004268367167511567532_);}
	.st11{fill:url(#SVGID_00000096770035111877352320000003733973746349175222_);}
	.st12{fill:url(#SVGID_00000087392907777475479340000012834496121614776489_);}
	.st13{fill:url(#SVGID_00000127010469674450395070000011388517098527182736_);}
	.st14{fill:url(#SVGID_00000126281163153521141740000011951502512989034674_);}
	.st15{fill:url(#SVGID_00000031897417015289546100000013253389549415774644_);}
	.st16{fill:url(#SVGID_00000066485538850921088960000012529983172763492777_);}
	.st17{fill:url(#SVGID_00000072978655385042322040000011381671547539240588_);}
	.st18{fill:url(#SVGID_00000177457382060862154830000002097720438874200725_);}
	.st19{fill:url(#SVGID_00000003092101838319290210000010404507844713774505_);}
	.st20{fill:url(#SVGID_00000162313936979289729000000006048134475082162349_);}
	.st21{fill:url(#SVGID_00000026131212608366207350000006709374971806577813_);}
	.st22{fill:url(#SVGID_00000031192654672891413100000002501727569644926097_);}
	.st23{fill:url(#SVGID_00000065779380655444257090000008273806633397955752_);}
	.st24{fill:url(#SVGID_00000033371215133391374580000014174314845171229867_);}
	.st25{fill:url(#SVGID_00000178926487986623206210000018255866928090643618_);}
	.st26{fill:url(#SVGID_00000010274061211388632330000018238099310798156969_);}
	.st27{fill:url(#SVGID_00000132796029487304017830000002503637840617177748_);}
	.st28{fill:url(#SVGID_00000157291259689591646530000017012994564898434236_);}
	.st29{fill:url(#SVGID_00000139292240028549546110000008673371646315003582_);}
	.st30{fill:url(#SVGID_00000086659324396646723800000003253335318170151065_);}
	.st31{fill:url(#SVGID_00000099637375528620979480000016402828857930691976_);}
	.st32{fill:url(#SVGID_00000071542836844717612740000012748533931244420272_);}
	.st33{fill:url(#SVGID_00000140701090180426684780000015942929226416345765_);}
	.st34{fill:url(#SVGID_00000013169885731108144500000016548649796204907410_);}
	.st35{fill:url(#SVGID_00000124141219314415824520000000960984188541036685_);}
	.st36{fill:url(#SVGID_00000000199187774727770770000000535654713732073345_);}
	.st37{fill:url(#SVGID_00000011746914120706753190000000319485996595009696_);}
	.st38{fill:url(#SVGID_00000011000439733410681590000015003758076212877745_);}
	.st39{fill:url(#SVGID_00000178183506899872588960000005374609963183906203_);}
	.st40{fill:#231F20;}
	.st41{fill:url(#SVGID_00000082367663866027287640000018181012953264954035_);}
	.st42{fill:#FFFFFF;}
	.st43{fill:url(#SVGID_00000025439049397650795240000007003452413458628775_);}
	.st44{fill:url(#SVGID_00000056388241257431983910000005347175802049783682_);}
	.st45{fill:url(#SVGID_00000054969510715259448240000013086049672929661599_);}
	.st46{fill:url(#SVGID_00000044900479957779298800000011675664036987789199_);}
	.st47{fill:url(#SVGID_00000183210639785539438530000005571445613608359857_);}
	.st48{fill:url(#SVGID_00000152972631501484280840000000874486005132679328_);}
	.st49{fill:url(#SVGID_00000025406457012651414890000014007996994748060341_);}
	.st50{fill:url(#SVGID_00000091714958870844846070000008998537318374662844_);}
	.st51{fill:url(#SVGID_00000113313200531435903170000006164542061221499835_);}
	.st52{fill:url(#SVGID_00000003809068890662541950000004181246810865059736_);}
	.st53{fill:url(#SVGID_00000004504443180531041240000004231008342043768244_);}
	.st54{fill:url(#SVGID_00000044167371180650536570000010069722638676720055_);}
	.st55{fill:url(#SVGID_00000103986196919530341610000013698796784605517208_);}
	.st56{fill:url(#SVGID_00000078029557515796890270000008491222679132649610_);}
	.st57{fill:url(#SVGID_00000063612346519639343030000011274169132011274388_);}
	.st58{fill:url(#SVGID_00000078741488255241429720000014114104109537463684_);}
	.st59{fill:url(#SVGID_00000096022828936708473710000009975720982704050304_);}
	.st60{fill:url(#SVGID_00000008107558876427960390000008492860682353537978_);}
	.st61{fill:url(#SVGID_00000059296091923286273070000012491977730023735175_);}
	.st62{fill:url(#SVGID_00000175296243652334706940000010926284940342771359_);}
	.st63{fill:url(#SVGID_00000159442750225353716990000003601676092613252796_);}
	.st64{fill:url(#SVGID_00000056396144919975210000000000917846599985179540_);}
	.st65{fill:url(#SVGID_00000033346581327072776290000002345379208241135256_);}
	.st66{fill:url(#SVGID_00000158733723012450702450000017073603973930762907_);}
	.st67{fill:url(#SVGID_00000181048111721534036740000012219457097396964776_);}
	.st68{fill:url(#SVGID_00000053547319629967681070000017969556994820669313_);}
	.st69{fill:url(#SVGID_00000107573676736118749030000003030352465641070492_);}
	.st70{fill:url(#SVGID_00000145762508011233494110000005942503254215111338_);}
	.st71{fill:url(#SVGID_00000138543713511124676330000007020373771803115136_);}
	.st72{fill:url(#SVGID_00000125599552033305868550000007577232320264646840_);}
	.st73{fill:url(#SVGID_00000171718991403744732160000002808960847366846888_);}
	.st74{fill:url(#SVGID_00000051372885393957823890000006275220227182549676_);}
	.st75{fill:url(#SVGID_00000129179794471879948510000004850306340048165021_);}
	.st76{fill:url(#SVGID_00000058570146893806826480000002741574596808422310_);}
	.st77{fill:url(#SVGID_00000011741735892425044510000004770957593817097629_);}
	.st78{fill:url(#SVGID_00000023268307460553648180000004814712885443501980_);}
	.st79{fill:url(#SVGID_00000150103691842900660320000014646620149208305042_);}
	.st80{fill:url(#SVGID_00000013158749518308616960000004198518101469444504_);}
	.st81{fill:url(#SVGID_00000008840094134288695800000002004256759391846830_);}
	.st82{fill:url(#SVGID_00000117662232251094072260000003357413898833709715_);}
	.st83{fill:url(#SVGID_00000077284435266939491860000010848705850270318488_);}
	.st84{fill:url(#SVGID_00000168810779949500169190000005133153574568304314_);}
</style>
<linearGradient id="SVGID_1_" gradientUnits="userSpaceOnUse" x1="240.2257" y1="65.842" x2="448.7198" y2="163.9115">
	<stop  offset="0" style="stop-color:#53BD9F"/>
	<stop  offset="1" style="stop-color:#32A5D3"/>
</linearGradient>
<path class="st0" d="M377.89,109.02c-21.4,0-42.62,0-64.12,0c0.18,1.01,0.28,1.8,0.45,2.56c0.93,4.26,2.65,8.13,5.64,11.38
	c3.14,3.4,7.04,5.42,11.57,6.06c4.97,0.7,9.91,0.54,14.63-1.5c3.71-1.6,6.31-4.27,7.71-8.09c0.15-0.42,0.33-0.83,0.55-1.37
	c7.93,0,15.87,0,24.01,0c-0.07,0.47-0.11,0.88-0.2,1.28c-2.77,11.95-9.85,20.44-20.83,25.7c-8.86,4.25-18.25,5.31-27.95,4.19
	c-6.92-0.8-13.31-3-19.15-6.82c-7.07-4.62-12.25-10.86-15.77-18.47c-3.24-7.01-4.76-14.43-4.48-22.14
	c0.32-8.94,2.49-17.39,7.27-25.06c5.82-9.34,14.14-15.33,24.79-17.85c10.34-2.45,20.61-1.95,30.61,1.9
	c9.03,3.48,15.77,9.59,20.26,18.09c4.48,8.47,6.03,17.57,5.23,27.09C378.04,106.86,377.98,107.76,377.89,109.02z M314.33,93.35
	c13.15,0,26.12,0,39.28,0c-0.21-1.27-0.3-2.39-0.58-3.46c-1.86-7.04-6.13-11.74-13.31-13.56c-3.01-0.77-6.04-0.84-9.16-0.51
	C321.92,76.75,315.61,82.74,314.33,93.35z M450.15,58.83c-7.94,0-15.74,0-23.8,0c0-2.37,0-4.53,0-6.7c0-2.18,0-4.37,0-6.55
	c0-2.18,0.02-4.37-0.01-6.55c-0.02-2.15,0.12-4.31-0.1-6.42c-8.3,0-16.34,0-24.65,0c0,0.91,0,1.72,0,2.52
	c0,7.08,0.01,14.16-0.02,21.24c0,0.79,0.28,1.67-0.46,2.41c-5.49,0.21-11.03-0.14-16.61,0.2c0,6.94,0,13.61,0,20.54
	c2.88,0,5.64-0.01,8.41,0c2.84,0.01,5.68-0.05,8.67,0.05c0,1.08,0,1.9,0,2.72c0,10.62-0.04,21.24,0.03,31.85
	c0.02,3.83,0.24,7.66,1.19,11.41c2.13,8.41,6.84,14.77,14.65,18.76c4.92,2.51,10.18,3.67,15.64,3.85
	c5.27,0.17,10.54,0.07,15.81,0.07c0.42,0,0.85-0.11,1.27-0.18c0-6.88,0-13.63,0-20.61c-0.85,0-1.58,0-2.31,0
	c-3.54-0.02-7.09,0.13-10.61-0.1c-5.89-0.38-9.69-3.56-10.54-9.25c-0.18-1.19-0.34-2.39-0.34-3.58
	c-0.03-11.07-0.02-22.14-0.01-33.21c0-0.57,0.11-1.14,0.18-1.8c7.91,0,15.66,0,23.62,0C450.15,72.51,450.15,65.78,450.15,58.83z
	 M251.83,59.22c0,0.86,0,1.75,0,2.65c0,29.51,0.01,59.03-0.02,88.54c0,1.95-0.15,3.91-0.45,5.84c-0.7,4.62-3.36,7.63-7.56,8.5
	c-1.38,0.29-2.84,0.2-4.27,0.23c-1.41,0.03-2.81,0.01-4.17,0.01c-0.46,3.24-0.32,17.81,0.15,19.36c3.97,0,7.97,0.16,11.95-0.05
	c2.91-0.16,5.85-0.56,8.67-1.3c9.8-2.57,16.28-8.69,19.08-18.54c1.06-3.73,1.21-7.56,1.21-11.41c-0.01-30.57,0-61.13,0-91.7
	c0-0.74,0-1.48,0-2.17C274.23,58.69,253.67,58.72,251.83,59.22z"/>
<g>
	<path class="st42" d="M558.77,103.09c0,25.76-18.82,46.04-43.84,46.04c-14.8,0-28.86-7.12-35.62-18.82v49.87h-9.13V59.07h8.77
		v17.72c6.58-12.06,20.83-19.55,35.99-19.55C539.95,57.24,558.77,77.52,558.77,103.09z M549.27,103.28
		c0-21.19-14.8-37.45-35.26-37.45c-17.35,0-34.71,11.14-34.71,37.27c0,26.31,17.35,37.45,34.71,37.45
		C534.47,140.54,549.27,124.47,549.27,103.28z"/>
	<path class="st42" d="M618.68,59.07v8.04h-4.57c-14.61,0-29.96,10.05-29.96,28.31v51.88h-9.13V59.07h8.77v14.98
		c6.39-10.41,17.54-15.53,29.23-15.53C615.58,58.52,617.04,58.89,618.68,59.07z"/>
	<path class="st42" d="M619.41,103.09c0-25.94,20.09-45.85,45.67-45.85c25.39,0,45.67,20.09,45.67,45.85s-20.28,46.04-45.85,46.04
		C639.5,149.13,619.41,128.85,619.41,103.09z M701.25,103.28c0-21.37-15.89-37.45-36.17-37.45c-20.64,0-36.17,16.08-36.17,37.45
		c0,21.19,15.53,37.27,35.99,37.27S701.25,124.28,701.25,103.28z"/>
	<path class="st42" d="M771.21,139.26v8.04c-4.2,1.1-8.4,1.83-13.7,1.83c-15.34,0-27.04-7.31-27.04-26.49V67.47h-15.34v-8.4h15.34
		V34.04h9.32v25.03h28.5v8.4h-28.5v54.8c0,14.43,8.4,18.45,19.18,18.45C763.18,140.73,766.83,140.18,771.21,139.26z"/>
	<path class="st42" d="M773.77,103.09c0-25.94,20.09-45.85,45.67-45.85c25.39,0,45.67,20.09,45.67,45.85s-20.28,46.04-45.85,46.04
		C793.86,149.13,773.77,128.85,773.77,103.09z M855.61,103.28c0-21.37-15.89-37.45-36.17-37.45c-20.64,0-36.17,16.08-36.17,37.45
		c0,21.19,15.53,37.27,35.99,37.27S855.61,124.28,855.61,103.28z"/>
	<path class="st42" d="M874.61,103.09c0-25.58,20.09-45.85,45.67-45.85c15.16,0,27.58,7.12,35.62,18.09l-6.58,5.3
		c-6.94-9.13-16.62-14.8-29.05-14.8c-20.64,0-36.17,16.44-36.17,37.27c0,21.01,15.53,37.45,35.99,37.45
		c12.42,0,22.1-5.66,29.23-14.8l6.58,5.3c-8.04,10.96-20.64,18.09-35.8,18.09C894.7,149.13,874.61,128.67,874.61,103.09z"/>
	<path class="st42" d="M962.66,103.09c0-25.94,20.09-45.85,45.67-45.85c25.39,0,45.67,20.09,45.67,45.85s-20.28,46.04-45.85,46.04
		C982.75,149.13,962.66,128.85,962.66,103.09z M1044.49,103.28c0-21.37-15.89-37.45-36.17-37.45c-20.64,0-36.17,16.08-36.17,37.45
		c0,21.19,15.53,37.27,35.99,37.27S1044.49,124.28,1044.49,103.28z"/>
	<path class="st42" d="M1070.25,10.29h9.13V147.3h-9.13V10.29z"/>
</g>
<g>
	
		<linearGradient id="SVGID_00000088106401570184501070000001041278659175732108_" gradientUnits="userSpaceOnUse" x1="79.1539" y1="48.4178" x2="125.1401" y2="49.3468">
		<stop  offset="0" style="stop-color:#32A5D3"/>
		<stop  offset="0.4109" style="stop-color:#53BD9F"/>
		<stop  offset="0.6182" style="stop-color:#72CCB0"/>
		<stop  offset="1" style="stop-color:#74E0C1;stop-opacity:0"/>
	</linearGradient>
	<path style="fill:url(#SVGID_00000088106401570184501070000001041278659175732108_);" d="M108.33,9
		c-12.69-0.03-25.6,2.39-38.06,7.56l29.95,72.31c2.65-1.1,5.41-1.61,8.11-1.58c2.79,0.03,5.53,0.62,8.05,1.72l29.95-72.31
		C134.39,11.69,121.47,9.03,108.33,9z"/>
	
		<linearGradient id="SVGID_00000047032317536277135770000017019440465776135585_" gradientUnits="userSpaceOnUse" x1="48.0946" y1="89.1756" x2="78.7521" y2="51.086">
		<stop  offset="0" style="stop-color:#32A5D3"/>
		<stop  offset="0.4109" style="stop-color:#53BD9F"/>
		<stop  offset="0.6182" style="stop-color:#72CCB0"/>
		<stop  offset="1" style="stop-color:#74E0C1;stop-opacity:0"/>
	</linearGradient>
	<path style="fill:url(#SVGID_00000047032317536277135770000017019440465776135585_);" d="M38.01,38.13
		c-9.28,9.32-16.52,20.33-21.44,32.31l72.31,29.95c1.01-2.56,2.52-4.92,4.48-6.91c1.89-1.93,4.2-3.52,6.85-4.62L70.27,16.56
		C57.81,21.72,46.97,29.13,38.01,38.13z"/>
	
		<linearGradient id="SVGID_00000150784451482962354200000007653045599399805827_" gradientUnits="userSpaceOnUse" x1="127.1437" y1="47.2009" x2="164.7688" y2="79.2519">
		<stop  offset="0" style="stop-color:#32A5D3"/>
		<stop  offset="0.4109" style="stop-color:#53BD9F"/>
		<stop  offset="0.6182" style="stop-color:#72CCB0"/>
		<stop  offset="1" style="stop-color:#74E0C1;stop-opacity:0"/>
	</linearGradient>
	<path style="fill:url(#SVGID_00000150784451482962354200000007653045599399805827_);" d="M178.46,38.31
		c-9.25-9.32-20.2-16.64-32.13-21.62L116.38,89c2.5,1.09,4.8,2.66,6.72,4.67c1.73,1.81,3.17,3.95,4.18,6.4
		c0.06,0.15,0.11,0.3,0.17,0.44l72.31-29.95c-0.06-0.15-0.12-0.3-0.18-0.44C194.51,57.87,187.25,47.18,178.46,38.31z"/>
	
		<linearGradient id="SVGID_00000085210016043061523390000014425818307726140037_" gradientUnits="userSpaceOnUse" x1="167.4658" y1="79.6323" x2="167.0013" y2="127.012">
		<stop  offset="0" style="stop-color:#32A5D3"/>
		<stop  offset="0.4109" style="stop-color:#53BD9F"/>
		<stop  offset="0.6182" style="stop-color:#72CCB0"/>
		<stop  offset="1" style="stop-color:#74E0C1;stop-opacity:0"/>
	</linearGradient>
	<path style="fill:url(#SVGID_00000085210016043061523390000014425818307726140037_);" d="M127.45,100.52
		c1.01,2.6,1.46,5.29,1.4,7.92c-0.06,2.7-0.65,5.35-1.71,7.79l72.31,29.95c4.96-11.87,7.63-24.69,7.69-37.75
		c0.06-12.63-2.31-25.47-7.38-37.88L127.45,100.52z"/>
	
		<linearGradient id="SVGID_00000051365280308182489200000003583359137502306477_" gradientUnits="userSpaceOnUse" x1="50.2745" y1="138.7795" x2="48.4164" y2="89.0773">
		<stop  offset="0" style="stop-color:#32A5D3"/>
		<stop  offset="0.4109" style="stop-color:#53BD9F"/>
		<stop  offset="0.6182" style="stop-color:#72CCB0"/>
		<stop  offset="1" style="stop-color:#74E0C1;stop-opacity:0"/>
	</linearGradient>
	<path style="fill:url(#SVGID_00000051365280308182489200000003583359137502306477_);" d="M88.89,100.39L16.57,70.44
		c-4.91,11.96-7.48,24.87-7.43,38.01c0.05,12.49,2.48,25.18,7.55,37.44c0.06,0.15,0.13,0.29,0.19,0.44l72.31-29.95
		c-0.06-0.15-0.13-0.29-0.19-0.44c-1.02-2.45-1.52-4.98-1.57-7.49C87.38,105.66,87.88,102.93,88.89,100.39z"/>
	
		<linearGradient id="SVGID_00000054239787834060109340000000113908181696229760_" gradientUnits="userSpaceOnUse" x1="168.0125" y1="126.2733" x2="137.355" y2="165.7564">
		<stop  offset="0" style="stop-color:#32A5D3"/>
		<stop  offset="0.4109" style="stop-color:#53BD9F"/>
		<stop  offset="0.6182" style="stop-color:#72CCB0"/>
		<stop  offset="1" style="stop-color:#74E0C1;stop-opacity:0"/>
	</linearGradient>
	<path style="fill:url(#SVGID_00000054239787834060109340000000113908181696229760_);" d="M127.14,116.24
		c-1.05,2.43-2.57,4.65-4.48,6.54c-1.84,1.81-4.05,3.31-6.59,4.36l29.95,72.31c12.34-5.11,23.09-12.43,32-21.31
		c9.24-9.21,16.48-20.1,21.44-31.94L127.14,116.24z"/>
	
		<linearGradient id="SVGID_00000114775950794910218460000000827021201938103966_" gradientUnits="userSpaceOnUse" x1="86.8085" y1="170.838" x2="52.8995" y2="135.5355">
		<stop  offset="0" style="stop-color:#32A5D3"/>
		<stop  offset="0.4109" style="stop-color:#53BD9F"/>
		<stop  offset="0.6182" style="stop-color:#72CCB0"/>
		<stop  offset="1" style="stop-color:#74E0C1;stop-opacity:0"/>
	</linearGradient>
	<path style="fill:url(#SVGID_00000114775950794910218460000000827021201938103966_);" d="M93.81,122.96
		c-1.9-1.82-3.49-4.04-4.61-6.59l-72.31,29.95c5.19,12.36,12.59,23.12,21.56,32c9.28,9.19,20.23,16.37,32.13,21.25l29.95-72.31
		C98.05,126.28,95.77,124.82,93.81,122.96z"/>
	
		<linearGradient id="SVGID_00000074422185831355769460000003135409987862887851_" gradientUnits="userSpaceOnUse" x1="137.2039" y1="167.8425" x2="90.7532" y2="166.4489">
		<stop  offset="0" style="stop-color:#32A5D3"/>
		<stop  offset="0.4109" style="stop-color:#53BD9F"/>
		<stop  offset="0.6182" style="stop-color:#72CCB0"/>
		<stop  offset="1" style="stop-color:#74E0C1;stop-opacity:0"/>
	</linearGradient>
	<path style="fill:url(#SVGID_00000074422185831355769460000003135409987862887851_);" d="M108.33,128.71
		c-2.69,0.02-5.33-0.48-7.79-1.45l-29.95,72.31c11.88,4.87,24.7,7.45,37.75,7.43c12.58-0.02,25.36-2.44,37.7-7.55l-29.95-72.31
		C113.54,128.19,110.91,128.69,108.33,128.71z"/>
</g>
</svg>
