<?xml version="1.0" encoding="utf-8"?>
<!-- Generator: Adobe Illustrator 25.4.1, SVG Export Plug-In . SVG Version: 6.00 Build 0)  -->
<svg version="1.1" id="Layer_1" xmlns="http://www.w3.org/2000/svg" xmlns:xlink="http://www.w3.org/1999/xlink" x="0px" y="0px"
	 viewBox="0 0 1109.45 216" style="enable-background:new 0 0 1109.45 216;" xml:space="preserve">
<style type="text/css">
	.st0{fill:url(#SVGID_1_);}
	.st1{fill:url(#SVGID_00000031201163967054562070000014259464492299921793_);}
	.st2{fill:url(#SVGID_00000111160328430489710260000000657797480725356944_);}
	.st3{fill:url(#SVGID_00000175315880689199741880000011706224569048396978_);}
	.st4{fill:url(#SVGID_00000034048065030493656630000001525361542266546607_);}
	.st5{fill:url(#SVGID_00000011024416731120742670000011210836598737159081_);}
	.st6{fill:url(#SVGID_00000139294698190419624230000006862539553583943332_);}
	.st7{fill:url(#SVGID_00000137815955316430341470000006202862791983671946_);}
	.st8{fill:url(#SVGID_00000071558151300811913900000007077318943077888184_);}
	.st9{fill:url(#SVGID_00000061465671397837389670000008815655993229741959_);}
	.st10{fill:url(#SVGID_00000109742610757342138840000015332961004197055912_);}
	.st11{fill:url(#SVGID_00000034801334204442334180000007668750120825252537_);}
	.st12{fill:url(#SVGID_00000039102720167303207560000002169370197817188766_);}
	.st13{fill:url(#SVGID_00000181783929456243527910000016694500762665497772_);}
	.st14{fill:url(#SVGID_00000167380137824443849870000017287748429015891114_);}
	.st15{fill:url(#SVGID_00000106123128479141462500000011714154119629534595_);}
	.st16{fill:url(#SVGID_00000140719023382233317270000016753527670294634418_);}
	.st17{fill:url(#SVGID_00000098906612874029832170000001752404322923545766_);}
	.st18{fill:url(#SVGID_00000015349339006688233040000004455981357979510412_);}
	.st19{fill:url(#SVGID_00000021797729635332304780000018022787448063356322_);}
	.st20{fill:url(#SVGID_00000000181844455191508060000011445603633835592098_);}
	.st21{fill:url(#SVGID_00000023964307989495430040000010194413839502535087_);}
	.st22{fill:url(#SVGID_00000008127601136044577460000012348890625932756120_);}
	.st23{fill:url(#SVGID_00000138547278014563959240000006756609425316972682_);}
	.st24{fill:url(#SVGID_00000133509418174720715230000014022144905558829995_);}
	.st25{fill:url(#SVGID_00000137813911610946889510000016870887882531331519_);}
	.st26{fill:url(#SVGID_00000035523724101169468430000006372327514069614753_);}
	.st27{fill:url(#SVGID_00000145021196139929232200000005121950665515751846_);}
	.st28{fill:url(#SVGID_00000112590710060242939090000007648737823038216639_);}
	.st29{fill:url(#SVGID_00000008862220815204902030000013406311833895938442_);}
	.st30{fill:url(#SVGID_00000055698724573125644240000013699446790609569427_);}
	.st31{fill:url(#SVGID_00000007429401924213791140000011073532510749959326_);}
	.st32{fill:url(#SVGID_00000085944690840939722060000017366823343312301987_);}
	.st33{fill:url(#SVGID_00000132075820426049370550000002296529139300915112_);}
	.st34{fill:url(#SVGID_00000123434237040680891210000005234679907277204865_);}
	.st35{fill:url(#SVGID_00000018950721078056148780000017974232613273358469_);}
	.st36{fill:url(#SVGID_00000124853382114975335010000012672259528719437996_);}
	.st37{fill:url(#SVGID_00000029759018700119581110000005854921133498025147_);}
	.st38{fill:url(#SVGID_00000158023084262232699960000011135654921975197366_);}
	.st39{fill:url(#SVGID_00000137845511968118487090000001557988000491474074_);}
	.st40{fill:#231F20;}
	.st41{fill:url(#SVGID_00000034065863725031511450000012051948547405584034_);}
	.st42{fill:#FFFFFF;}
	.st43{fill:url(#SVGID_00000088845065817634462630000016151172461119106236_);}
	.st44{fill:url(#SVGID_00000013174476978964445690000016758628927688571781_);}
	.st45{fill:url(#SVGID_00000078027693735040892220000001904916228347735949_);}
	.st46{fill:url(#SVGID_00000068665994474942080460000015040300342070028205_);}
	.st47{fill:url(#SVGID_00000178886037398357367210000001998559454009717397_);}
	.st48{fill:url(#SVGID_00000076583336862715932360000001903758895473579410_);}
	.st49{fill:url(#SVGID_00000161607441029122648940000006255693291966593668_);}
	.st50{fill:url(#SVGID_00000025417162842980050540000007528248896174890402_);}
	.st51{fill:url(#SVGID_00000101797194996121803150000014052934706177936532_);}
	.st52{fill:url(#SVGID_00000046325938082931568170000015594552224572251525_);}
	.st53{fill:url(#SVGID_00000163042336664620185160000012065328572740034231_);}
	.st54{fill:url(#SVGID_00000182527988288154619940000013694981009042566536_);}
	.st55{fill:url(#SVGID_00000035491474343852696890000000102322098306186167_);}
	.st56{fill:url(#SVGID_00000063601863716005989040000014260786348574139549_);}
	.st57{fill:url(#SVGID_00000135687700513154423800000004783555234682473901_);}
	.st58{fill:url(#SVGID_00000078033364525153051270000007173921179063602817_);}
	.st59{fill:url(#SVGID_00000106138296728566686670000002530555149574477217_);}
	.st60{fill:url(#SVGID_00000026860466156405915970000015999831999505665703_);}
	.st61{fill:url(#SVGID_00000109749607036527129600000017978841328132465805_);}
	.st62{fill:url(#SVGID_00000065773243892128225390000008377363977623408513_);}
	.st63{fill:url(#SVGID_00000183934725057190935980000010567800111927205790_);}
	.st64{fill:url(#SVGID_00000116953963353591516160000007861085805374642620_);}
	.st65{fill:url(#SVGID_00000067216769080303161140000012092453279297974194_);}
	.st66{fill:url(#SVGID_00000170277567030947244040000010157189550696393636_);}
	.st67{fill:url(#SVGID_00000152266104950193444010000000236677783810574506_);}
	.st68{fill:url(#SVGID_00000102512022480788460800000009291721359914016697_);}
	.st69{fill:url(#SVGID_00000075155140404594424110000008067387937708487082_);}
	.st70{fill:url(#SVGID_00000150081857598636073200000003657983973384895628_);}
	.st71{fill:url(#SVGID_00000014623088232061705230000013701771274067260294_);}
	.st72{fill:url(#SVGID_00000158747927753610121140000015657842517852109705_);}
	.st73{fill:url(#SVGID_00000018199887013091892570000011482448220180192653_);}
	.st74{fill:url(#SVGID_00000160189121504079483230000004410937168840398500_);}
	.st75{fill:url(#SVGID_00000042727175528100899730000002673314329737933982_);}
	.st76{fill:url(#SVGID_00000090975807430250888140000013004714799216698034_);}
	.st77{fill:url(#SVGID_00000067237595067326547110000009295859407753184384_);}
	.st78{fill:url(#SVGID_00000063594479651298667190000008879842699489018038_);}
	.st79{fill:url(#SVGID_00000130630270130040917840000013436888546993210779_);}
	.st80{fill:url(#SVGID_00000031924752227181781790000007846280156536232075_);}
	.st81{fill:url(#SVGID_00000017474817964075822650000009699200862790815395_);}
	.st82{fill:url(#SVGID_00000121247348129594984450000000710973025028908441_);}
	.st83{fill:url(#SVGID_00000166667036149078093200000011386862915295491987_);}
	.st84{fill:url(#SVGID_00000165215016667499259890000002765237112941817729_);}
</style>
<g>
	
		<linearGradient id="SVGID_1_" gradientUnits="userSpaceOnUse" x1="339.7813" y1="747.6453" x2="382.3617" y2="766.8414" gradientTransform="matrix(0.9239 -0.3827 0.3827 0.9239 -516.4647 -512.4365)">
		<stop  offset="0" style="stop-color:#FFFFFF"/>
		<stop  offset="1" style="stop-color:#FFFFFF;stop-opacity:0"/>
	</linearGradient>
	<path class="st0" d="M108.48,9c-12.69-0.03-25.6,2.39-38.06,7.56l29.95,72.31c2.65-1.1,5.41-1.61,8.11-1.58
		c2.79,0.03,5.53,0.62,8.05,1.72l29.95-72.31C134.54,11.69,121.63,9.03,108.48,9z"/>
	
		<linearGradient id="SVGID_00000171712914296528834040000013163322851430639760_" gradientUnits="userSpaceOnUse" x1="293.0953" y1="765.6154" x2="337.0717" y2="751.6546" gradientTransform="matrix(0.9239 -0.3827 0.3827 0.9239 -516.4647 -512.4365)">
		<stop  offset="0" style="stop-color:#FFFFFF"/>
		<stop  offset="1" style="stop-color:#FFFFFF;stop-opacity:0"/>
	</linearGradient>
	<path style="fill:url(#SVGID_00000171712914296528834040000013163322851430639760_);" d="M38.16,38.13
		c-9.28,9.32-16.52,20.33-21.44,32.31l72.31,29.95c1.01-2.56,2.52-4.92,4.48-6.91c1.89-1.93,4.2-3.52,6.85-4.62L70.42,16.56
		C57.96,21.72,47.12,29.13,38.16,38.13z"/>
	
		<linearGradient id="SVGID_00000083050312048917255090000009094574968652870320_" gradientUnits="userSpaceOnUse" x1="386.1086" y1="766.9631" x2="402.1635" y2="811.6376" gradientTransform="matrix(0.9239 -0.3827 0.3827 0.9239 -516.4647 -512.4365)">
		<stop  offset="0" style="stop-color:#FFFFFF"/>
		<stop  offset="1" style="stop-color:#FFFFFF;stop-opacity:0"/>
	</linearGradient>
	<path style="fill:url(#SVGID_00000083050312048917255090000009094574968652870320_);" d="M178.61,38.31
		c-9.25-9.32-20.2-16.64-32.13-21.62L116.53,89c2.5,1.09,4.8,2.66,6.72,4.67c1.73,1.81,3.17,3.95,4.18,6.4
		c0.06,0.15,0.11,0.3,0.17,0.45l72.32-29.95c-0.06-0.15-0.12-0.3-0.18-0.44C194.67,57.87,187.41,47.18,178.61,38.31z"/>
	
		<linearGradient id="SVGID_00000087372463201834870990000006722917111227371967_" gradientUnits="userSpaceOnUse" x1="407.285" y1="810.4649" x2="383.9007" y2="854.4414" gradientTransform="matrix(0.9239 -0.3827 0.3827 0.9239 -516.4647 -512.4365)">
		<stop  offset="0" style="stop-color:#FFFFFF"/>
		<stop  offset="1" style="stop-color:#FFFFFF;stop-opacity:0"/>
	</linearGradient>
	<path style="fill:url(#SVGID_00000087372463201834870990000006722917111227371967_);" d="M127.6,100.52
		c1.01,2.6,1.46,5.29,1.4,7.92c-0.06,2.7-0.65,5.35-1.71,7.79l72.31,29.95c4.96-11.87,7.63-24.69,7.69-37.75
		c0.06-12.63-2.31-25.47-7.38-37.88L127.6,100.52z"/>
	
		<linearGradient id="SVGID_00000145747354653088118600000010226259665239732129_" gradientUnits="userSpaceOnUse" x1="277.0947" y1="812.1105" x2="293.4986" y2="767.087" gradientTransform="matrix(0.9239 -0.3827 0.3827 0.9239 -516.4647 -512.4365)">
		<stop  offset="0" style="stop-color:#FFFFFF"/>
		<stop  offset="1" style="stop-color:#FFFFFF;stop-opacity:0"/>
	</linearGradient>
	<path style="fill:url(#SVGID_00000145747354653088118600000010226259665239732129_);" d="M89.04,100.39L16.73,70.44
		c-4.91,11.96-7.48,24.87-7.43,38.01c0.05,12.49,2.48,25.18,7.55,37.44c0.06,0.15,0.13,0.29,0.19,0.44l72.32-29.95
		c-0.06-0.15-0.13-0.29-0.19-0.44c-1.02-2.45-1.52-4.98-1.57-7.49C87.53,105.66,88.04,102.93,89.04,100.39z"/>
	
		<linearGradient id="SVGID_00000163061160904134464230000016818578869217372845_" gradientUnits="userSpaceOnUse" x1="386.9939" y1="859.8998" x2="342.3193" y2="872.4645" gradientTransform="matrix(0.9239 -0.3827 0.3827 0.9239 -516.4647 -512.4365)">
		<stop  offset="0" style="stop-color:#FFFFFF"/>
		<stop  offset="1" style="stop-color:#FFFFFF;stop-opacity:0"/>
	</linearGradient>
	<path style="fill:url(#SVGID_00000163061160904134464230000016818578869217372845_);" d="M127.3,116.24
		c-1.05,2.43-2.57,4.65-4.48,6.54c-1.84,1.81-4.05,3.31-6.59,4.36l29.95,72.31c12.34-5.11,23.09-12.43,32-21.31
		c9.24-9.21,16.49-20.1,21.44-31.94L127.3,116.24z"/>
	
		<linearGradient id="SVGID_00000121994436466946388790000000851858999096346240_" gradientUnits="userSpaceOnUse" x1="295.2495" y1="855.2348" x2="275.7044" y2="815.4465" gradientTransform="matrix(0.9239 -0.3827 0.3827 0.9239 -516.4647 -512.4365)">
		<stop  offset="0" style="stop-color:#FFFFFF"/>
		<stop  offset="1" style="stop-color:#FFFFFF;stop-opacity:0"/>
	</linearGradient>
	<path style="fill:url(#SVGID_00000121994436466946388790000000851858999096346240_);" d="M93.97,122.96
		c-1.9-1.82-3.49-4.04-4.61-6.59l-72.32,29.95c5.19,12.36,12.59,23.12,21.56,32c9.28,9.19,20.23,16.37,32.13,21.25l29.95-72.31
		C98.21,126.28,95.92,124.82,93.97,122.96z"/>
	
		<linearGradient id="SVGID_00000019659093454178755350000017493485297214514614_" gradientUnits="userSpaceOnUse" x1="339.3273" y1="877.8632" x2="299.1901" y2="857.62" gradientTransform="matrix(0.9239 -0.3827 0.3827 0.9239 -516.4647 -512.4365)">
		<stop  offset="0" style="stop-color:#FFFFFF"/>
		<stop  offset="1" style="stop-color:#FFFFFF;stop-opacity:0"/>
	</linearGradient>
	<path style="fill:url(#SVGID_00000019659093454178755350000017493485297214514614_);" d="M108.48,128.71
		c-2.69,0.02-5.33-0.48-7.79-1.45l-29.95,72.31c11.88,4.87,24.7,7.45,37.75,7.43c12.58-0.02,25.36-2.44,37.7-7.55l-29.95-72.31
		C113.69,128.19,111.06,128.69,108.48,128.71z"/>
</g>
<g>
	<g>
		<g>
			<g>
				<path class="st42" d="M377.89,109.02c-21.4,0-42.62,0-64.12,0c0.18,1.01,0.28,1.8,0.45,2.56c0.93,4.26,2.65,8.13,5.64,11.38
					c3.14,3.4,7.04,5.42,11.57,6.06c4.97,0.7,9.91,0.54,14.63-1.5c3.71-1.6,6.31-4.27,7.71-8.09c0.15-0.42,0.33-0.83,0.55-1.37
					c7.93,0,15.87,0,24.01,0c-0.07,0.47-0.11,0.88-0.2,1.28c-2.77,11.95-9.85,20.44-20.83,25.7c-8.86,4.25-18.25,5.31-27.95,4.19
					c-6.92-0.8-13.31-3-19.15-6.82c-7.07-4.62-12.25-10.86-15.77-18.47c-3.24-7.01-4.76-14.43-4.48-22.14
					c0.32-8.94,2.49-17.39,7.27-25.06c5.82-9.34,14.14-15.33,24.79-17.85c10.34-2.45,20.61-1.95,30.61,1.9
					c9.03,3.48,15.77,9.59,20.26,18.09c4.48,8.47,6.03,17.57,5.23,27.09C378.04,106.86,377.98,107.76,377.89,109.02z M314.33,93.35
					c13.15,0,26.12,0,39.28,0c-0.21-1.27-0.3-2.39-0.58-3.46c-1.86-7.04-6.13-11.74-13.31-13.56c-3.01-0.77-6.04-0.84-9.16-0.51
					C321.92,76.75,315.61,82.74,314.33,93.35z"/>
				<path class="st42" d="M450.15,79.51c-7.96,0-15.7,0-23.62,0c-0.07,0.66-0.18,1.23-0.18,1.8c-0.01,11.07-0.02,22.14,0.01,33.21
					c0,1.2,0.16,2.4,0.34,3.58c0.85,5.69,4.65,8.87,10.54,9.25c3.53,0.23,7.08,0.08,10.61,0.1c0.73,0,1.47,0,2.31,0
					c0,6.98,0,13.72,0,20.61c-0.42,0.06-0.85,0.18-1.27,0.18c-5.27,0-10.55,0.1-15.81-0.07c-5.46-0.18-10.72-1.35-15.64-3.85
					c-7.81-3.98-12.52-10.35-14.65-18.76c-0.95-3.75-1.16-7.58-1.19-11.41c-0.07-10.62-0.02-21.24-0.03-31.85c0-0.82,0-1.64,0-2.72
					c-3-0.1-5.84-0.04-8.67-0.05c-2.76-0.01-5.53,0-8.41,0c0-6.93,0-13.6,0-20.54c5.58-0.34,11.12,0.01,16.61-0.2
					c0.74-0.75,0.45-1.62,0.46-2.41c0.02-7.08,0.02-14.16,0.02-21.24c0-0.81,0-1.61,0-2.52c8.31,0,16.35,0,24.65,0
					c0.22,2.12,0.07,4.28,0.1,6.42c0.02,2.18,0.01,4.37,0.01,6.55c0,2.18,0,4.37,0,6.55c0,2.16,0,4.33,0,6.7c8.06,0,15.86,0,23.8,0
					C450.15,65.78,450.15,72.51,450.15,79.51z"/>
				<path class="st42" d="M276.41,59.19c0,0.69,0,1.43,0,2.17c0,30.57-0.01,61.13,0,91.7c0,3.85-0.15,7.67-1.21,11.41
					c-2.8,9.84-9.28,15.97-19.08,18.54c-2.81,0.74-5.76,1.14-8.67,1.3c-3.98,0.22-7.97,0.05-11.95,0.05
					c-0.47-1.55-0.61-16.12-0.15-19.36c1.35,0,2.76,0.03,4.17-0.01c1.43-0.04,2.89,0.05,4.27-0.23c4.2-0.87,6.86-3.88,7.56-8.5
					c0.29-1.93,0.44-3.89,0.45-5.84c0.03-29.51,0.02-59.03,0.02-88.54c0-0.9,0-1.79,0-2.65C253.67,58.72,274.23,58.69,276.41,59.19z
					"/>
			</g>
		</g>
	</g>
</g>
<g>
	<path class="st42" d="M558.77,103.09c0,25.76-18.82,46.04-43.84,46.04c-14.8,0-28.86-7.12-35.62-18.82v49.87h-9.13V59.07h8.77
		v17.72c6.58-12.06,20.83-19.55,35.99-19.55C539.95,57.24,558.77,77.52,558.77,103.09z M549.27,103.28
		c0-21.19-14.8-37.45-35.26-37.45c-17.35,0-34.71,11.14-34.71,37.27c0,26.31,17.35,37.45,34.71,37.45
		C534.47,140.54,549.27,124.47,549.27,103.28z"/>
	<path class="st42" d="M618.68,59.07v8.04h-4.57c-14.61,0-29.96,10.05-29.96,28.31v51.88h-9.13V59.07h8.77v14.98
		c6.39-10.41,17.54-15.53,29.23-15.53C615.58,58.52,617.04,58.88,618.68,59.07z"/>
	<path class="st42" d="M619.41,103.09c0-25.94,20.09-45.85,45.67-45.85c25.39,0,45.67,20.09,45.67,45.85s-20.28,46.04-45.85,46.04
		C639.5,149.13,619.41,128.85,619.41,103.09z M701.25,103.28c0-21.37-15.89-37.45-36.17-37.45c-20.64,0-36.17,16.08-36.17,37.45
		c0,21.19,15.53,37.27,35.99,37.27S701.25,124.28,701.25,103.28z"/>
	<path class="st42" d="M771.21,139.26v8.04c-4.2,1.1-8.4,1.83-13.7,1.83c-15.34,0-27.04-7.31-27.04-26.49V67.47h-15.34v-8.4h15.34
		V34.04h9.32v25.03h28.5v8.4h-28.5v54.8c0,14.43,8.4,18.45,19.18,18.45C763.18,140.72,766.83,140.18,771.21,139.26z"/>
	<path class="st42" d="M773.77,103.09c0-25.94,20.09-45.85,45.67-45.85c25.39,0,45.67,20.09,45.67,45.85s-20.28,46.04-45.85,46.04
		C793.86,149.13,773.77,128.85,773.77,103.09z M855.61,103.28c0-21.37-15.89-37.45-36.17-37.45c-20.64,0-36.17,16.08-36.17,37.45
		c0,21.19,15.53,37.27,35.99,37.27S855.61,124.28,855.61,103.28z"/>
	<path class="st42" d="M874.61,103.09c0-25.58,20.09-45.85,45.67-45.85c15.16,0,27.58,7.12,35.62,18.09l-6.58,5.3
		c-6.94-9.13-16.62-14.8-29.05-14.8c-20.64,0-36.17,16.44-36.17,37.27c0,21.01,15.53,37.45,35.99,37.45
		c12.42,0,22.1-5.66,29.23-14.8l6.58,5.3c-8.04,10.96-20.64,18.09-35.8,18.09C894.7,149.13,874.61,128.67,874.61,103.09z"/>
	<path class="st42" d="M962.66,103.09c0-25.94,20.09-45.85,45.67-45.85c25.39,0,45.67,20.09,45.67,45.85s-20.28,46.04-45.85,46.04
		C982.75,149.13,962.66,128.85,962.66,103.09z M1044.5,103.28c0-21.37-15.89-37.45-36.17-37.45c-20.64,0-36.17,16.08-36.17,37.45
		c0,21.19,15.53,37.27,35.99,37.27S1044.5,124.28,1044.5,103.28z"/>
	<path class="st42" d="M1070.25,10.29h9.13V147.3h-9.13V10.29z"/>
</g>
</svg>
