<?xml version="1.0" encoding="utf-8"?>
<!-- Generator: Adobe Illustrator 25.4.1, SVG Export Plug-In . SVG Version: 6.00 Build 0)  -->
<svg version="1.1" id="Layer_1" xmlns="http://www.w3.org/2000/svg" xmlns:xlink="http://www.w3.org/1999/xlink" x="0px" y="0px"
	 viewBox="0 0 459 216" style="enable-background:new 0 0 459 216;" xml:space="preserve">
<style type="text/css">
	.st0{fill:url(#SVGID_1_);}
	.st1{fill:url(#SVGID_00000118363760972877908740000017940423109787459201_);}
	.st2{fill:url(#SVGID_00000083059670568125617400000003213041363077240732_);}
	.st3{fill:url(#SVGID_00000150087141409074006100000004132031711606073023_);}
	.st4{fill:url(#SVGID_00000114792328966555071580000002124652712903324063_);}
	.st5{fill:url(#SVGID_00000026150660513063980840000006428272277266843570_);}
	.st6{fill:url(#SVGID_00000043447993415954438500000004816442931855672961_);}
	.st7{fill:url(#SVGID_00000050622011047074717060000008496622953384241821_);}
	.st8{fill:url(#SVGID_00000072981348900443492340000012307894455284033956_);}
	.st9{fill:url(#SVGID_00000092445342993030739450000001389148664935763850_);}
	.st10{fill:url(#SVGID_00000020360207011402198040000001688249697107509179_);}
	.st11{fill:url(#SVGID_00000094585508300312982510000001032171942515236492_);}
	.st12{fill:url(#SVGID_00000105391889907316870970000017025864147015792515_);}
	.st13{fill:url(#SVGID_00000169536673532997204170000017499499089627366334_);}
	.st14{fill:url(#SVGID_00000035512794497978920840000010752659669094813869_);}
	.st15{fill:url(#SVGID_00000091006187559887187210000007350010469521668787_);}
	.st16{fill:url(#SVGID_00000081649801642922357650000008784807132800190640_);}
	.st17{fill:url(#SVGID_00000052810279856934326130000007895369794915792805_);}
	.st18{fill:url(#SVGID_00000183937057199547809670000017503141925450577024_);}
	.st19{fill:url(#SVGID_00000168803076714503096800000010333996671670825915_);}
	.st20{fill:url(#SVGID_00000078041463214740604690000015852303325207283098_);}
	.st21{fill:url(#SVGID_00000092434095071222431780000008085059286650949517_);}
	.st22{fill:url(#SVGID_00000051379650015508580140000011482701912555393467_);}
	.st23{fill:url(#SVGID_00000119093493714525332020000008577736856962551176_);}
	.st24{fill:url(#SVGID_00000064342523200265821920000017341555292365334191_);}
	.st25{fill:url(#SVGID_00000070839390719191362280000009734771230427832198_);}
	.st26{fill:url(#SVGID_00000056414696498441349660000000984555200307010454_);}
	.st27{fill:url(#SVGID_00000062192978637980667360000000325826091485467324_);}
	.st28{fill:url(#SVGID_00000145016936081775485400000010284154768909172137_);}
	.st29{fill:url(#SVGID_00000145741046798862829360000011740751309632188344_);}
	.st30{fill:url(#SVGID_00000063620460506216455010000006638628511342942359_);}
	.st31{fill:url(#SVGID_00000078737329044809280220000013813727105631293098_);}
	.st32{fill:url(#SVGID_00000130609298325640703680000003231500795632131498_);}
	.st33{fill:url(#SVGID_00000110460497963469219500000002629893443479199877_);}
	.st34{fill:url(#SVGID_00000113338818588529027030000011682365015315333255_);}
	.st35{fill:url(#SVGID_00000128459939635033941230000000271167889430345123_);}
	.st36{fill:url(#SVGID_00000099647923491879435700000001851585034697506442_);}
	.st37{fill:url(#SVGID_00000174560503470872180840000002733995150168950461_);}
	.st38{fill:url(#SVGID_00000088844058306146643120000014747632111733397914_);}
	.st39{fill:url(#SVGID_00000115485417593175110010000001381030189438104987_);}
	.st40{fill:#231F20;}
	.st41{fill:url(#SVGID_00000109025343701388753720000008574256568304166309_);}
	.st42{fill:#FFFFFF;}
	.st43{fill:url(#SVGID_00000126293224352202324630000015716765464035435145_);}
	.st44{fill:url(#SVGID_00000088823398854082931560000016160519183658610569_);}
	.st45{fill:url(#SVGID_00000085251505621807899480000010769714810154804921_);}
	.st46{fill:url(#SVGID_00000099637379091417205710000013211918665282003596_);}
	.st47{fill:url(#SVGID_00000098941971611745725160000004481034597899206826_);}
	.st48{fill:url(#SVGID_00000075863085018938798580000007297668907748603792_);}
	.st49{fill:url(#SVGID_00000124142321079611012850000002646020773680143493_);}
	.st50{fill:url(#SVGID_00000080903023200989666030000006043446287766378660_);}
	.st51{fill:url(#SVGID_00000041290573099465036180000006128961566163311024_);}
	.st52{fill:url(#SVGID_00000176043117971415651270000013627461850067444377_);}
	.st53{fill:url(#SVGID_00000000182904603043248200000007051728008009930681_);}
	.st54{fill:url(#SVGID_00000098200288734993218720000011998969055500493709_);}
	.st55{fill:url(#SVGID_00000026853411645323661860000013200713950140309177_);}
	.st56{fill:url(#SVGID_00000139271344450470941850000013653726212201827203_);}
	.st57{fill:url(#SVGID_00000099641412986939125740000017519227774559010707_);}
	.st58{fill:url(#SVGID_00000135669596534208146480000013201392299542824856_);}
	.st59{fill:url(#SVGID_00000036237279686321361990000013135453161906690725_);}
	.st60{fill:url(#SVGID_00000149375001554788314270000015487969831735433376_);}
	.st61{fill:url(#SVGID_00000121992068735331688620000017524657447930325425_);}
	.st62{fill:url(#SVGID_00000070084686111883575630000018150069694608463234_);}
	.st63{fill:url(#SVGID_00000156567580842045882400000014692107399100847256_);}
	.st64{fill:url(#SVGID_00000078017177450364206930000005871151928685527994_);}
	.st65{fill:url(#SVGID_00000042734123804323168770000004266975962346561690_);}
	.st66{fill:url(#SVGID_00000053536971951491754580000005378805605080105361_);}
	.st67{fill:url(#SVGID_00000076566908128018711820000007861183334855486378_);}
	.st68{fill:url(#SVGID_00000015354892426468141540000015751136725492489886_);}
	.st69{fill:url(#SVGID_00000007417912109897935500000004088252210215098755_);}
	.st70{fill:url(#SVGID_00000179631836595137291180000000816246177003251386_);}
	.st71{fill:url(#SVGID_00000145050180863149654880000017182610276275237019_);}
	.st72{fill:url(#SVGID_00000084516948119222764900000002088312740197507994_);}
	.st73{fill:url(#SVGID_00000106857680106147798950000012490517766644406658_);}
	.st74{fill:url(#SVGID_00000111160208207605650830000007875017605287666106_);}
	.st75{fill:url(#SVGID_00000160888871254555955140000009467940296546912951_);}
	.st76{fill:url(#SVGID_00000119107922982972728880000015789136932724084148_);}
	.st77{fill:url(#SVGID_00000080892400678527616390000016982066655577487001_);}
	.st78{fill:url(#SVGID_00000156578685246483529920000017190904689734579860_);}
	.st79{fill:url(#SVGID_00000015342685411245727920000001169831732615681434_);}
	.st80{fill:url(#SVGID_00000072240385720704493440000013135272528011926685_);}
	.st81{fill:url(#SVGID_00000145033776247736852830000015070547778018916746_);}
	.st82{fill:url(#SVGID_00000173877030812846691830000004605599972181875587_);}
	.st83{fill:url(#SVGID_00000091715628987418807610000008864566197680107938_);}
	.st84{fill:url(#SVGID_00000108279165626204090950000011159867602326785696_);}
</style>
<g>
	<linearGradient id="SVGID_1_" gradientUnits="userSpaceOnUse" x1="79.7675" y1="48.4178" x2="125.7537" y2="49.3468">
		<stop  offset="0" style="stop-color:#32A5D3"/>
		<stop  offset="0.4109" style="stop-color:#53BD9F"/>
		<stop  offset="0.6182" style="stop-color:#72CCB0"/>
		<stop  offset="1" style="stop-color:#74E0C1;stop-opacity:0"/>
	</linearGradient>
	<path class="st0" d="M108.94,9c-12.69-0.03-25.6,2.39-38.06,7.56l29.95,72.31c2.65-1.1,5.41-1.61,8.11-1.58
		c2.79,0.03,5.53,0.62,8.05,1.72l29.95-72.31C135,11.69,122.09,9.03,108.94,9z"/>
	
		<linearGradient id="SVGID_00000038408828443464072150000014574835040528525740_" gradientUnits="userSpaceOnUse" x1="48.7082" y1="89.1756" x2="79.3657" y2="51.086">
		<stop  offset="0" style="stop-color:#32A5D3"/>
		<stop  offset="0.4109" style="stop-color:#53BD9F"/>
		<stop  offset="0.6182" style="stop-color:#72CCB0"/>
		<stop  offset="1" style="stop-color:#74E0C1;stop-opacity:0"/>
	</linearGradient>
	<path style="fill:url(#SVGID_00000038408828443464072150000014574835040528525740_);" d="M38.63,38.13
		c-9.28,9.32-16.52,20.33-21.44,32.31l72.31,29.95c1.01-2.56,2.52-4.92,4.48-6.91c1.89-1.93,4.2-3.52,6.85-4.62L70.88,16.56
		C58.42,21.72,47.58,29.13,38.63,38.13z"/>
	
		<linearGradient id="SVGID_00000019645353100140098630000011385456551740937101_" gradientUnits="userSpaceOnUse" x1="127.7574" y1="47.2009" x2="165.3824" y2="79.2519">
		<stop  offset="0" style="stop-color:#32A5D3"/>
		<stop  offset="0.4109" style="stop-color:#53BD9F"/>
		<stop  offset="0.6182" style="stop-color:#72CCB0"/>
		<stop  offset="1" style="stop-color:#74E0C1;stop-opacity:0"/>
	</linearGradient>
	<path style="fill:url(#SVGID_00000019645353100140098630000011385456551740937101_);" d="M179.07,38.31
		c-9.25-9.32-20.2-16.64-32.13-21.62L116.99,89c2.5,1.09,4.8,2.66,6.72,4.67c1.73,1.81,3.17,3.95,4.18,6.4
		c0.06,0.15,0.11,0.3,0.17,0.44l72.31-29.95c-0.06-0.15-0.12-0.3-0.18-0.44C195.13,57.87,187.87,47.18,179.07,38.31z"/>
	
		<linearGradient id="SVGID_00000079457454332901408220000006896216417377467820_" gradientUnits="userSpaceOnUse" x1="168.0794" y1="79.6323" x2="167.6149" y2="127.012">
		<stop  offset="0" style="stop-color:#32A5D3"/>
		<stop  offset="0.4109" style="stop-color:#53BD9F"/>
		<stop  offset="0.6182" style="stop-color:#72CCB0"/>
		<stop  offset="1" style="stop-color:#74E0C1;stop-opacity:0"/>
	</linearGradient>
	<path style="fill:url(#SVGID_00000079457454332901408220000006896216417377467820_);" d="M128.07,100.52
		c1.01,2.6,1.46,5.29,1.4,7.92c-0.06,2.7-0.65,5.35-1.71,7.79l72.31,29.95c4.96-11.87,7.63-24.69,7.69-37.75
		c0.06-12.63-2.31-25.47-7.38-37.88L128.07,100.52z"/>
	
		<linearGradient id="SVGID_00000135684597974832019330000017560752697408459696_" gradientUnits="userSpaceOnUse" x1="50.8881" y1="138.7795" x2="49.03" y2="89.0773">
		<stop  offset="0" style="stop-color:#32A5D3"/>
		<stop  offset="0.4109" style="stop-color:#53BD9F"/>
		<stop  offset="0.6182" style="stop-color:#72CCB0"/>
		<stop  offset="1" style="stop-color:#74E0C1;stop-opacity:0"/>
	</linearGradient>
	<path style="fill:url(#SVGID_00000135684597974832019330000017560752697408459696_);" d="M89.5,100.39L17.19,70.44
		c-4.91,11.96-7.48,24.87-7.43,38.01c0.05,12.49,2.48,25.18,7.55,37.44c0.06,0.15,0.13,0.29,0.19,0.44l72.31-29.95
		c-0.06-0.15-0.13-0.29-0.19-0.44c-1.02-2.45-1.52-4.98-1.57-7.49C87.99,105.66,88.5,102.93,89.5,100.39z"/>
	
		<linearGradient id="SVGID_00000138543675227027679200000007785143714397518504_" gradientUnits="userSpaceOnUse" x1="168.6261" y1="126.2733" x2="137.9686" y2="165.7564">
		<stop  offset="0" style="stop-color:#32A5D3"/>
		<stop  offset="0.4109" style="stop-color:#53BD9F"/>
		<stop  offset="0.6182" style="stop-color:#72CCB0"/>
		<stop  offset="1" style="stop-color:#74E0C1;stop-opacity:0"/>
	</linearGradient>
	<path style="fill:url(#SVGID_00000138543675227027679200000007785143714397518504_);" d="M127.76,116.24
		c-1.05,2.43-2.57,4.65-4.48,6.54c-1.84,1.81-4.05,3.31-6.59,4.36l29.95,72.31c12.34-5.11,23.09-12.43,32-21.31
		c9.24-9.21,16.48-20.1,21.44-31.94L127.76,116.24z"/>
	
		<linearGradient id="SVGID_00000062188491468161205040000015818163827815913866_" gradientUnits="userSpaceOnUse" x1="87.4221" y1="170.838" x2="53.5131" y2="135.5355">
		<stop  offset="0" style="stop-color:#32A5D3"/>
		<stop  offset="0.4109" style="stop-color:#53BD9F"/>
		<stop  offset="0.6182" style="stop-color:#72CCB0"/>
		<stop  offset="1" style="stop-color:#74E0C1;stop-opacity:0"/>
	</linearGradient>
	<path style="fill:url(#SVGID_00000062188491468161205040000015818163827815913866_);" d="M94.43,122.96
		c-1.9-1.82-3.49-4.04-4.61-6.59L17.5,146.32c5.19,12.36,12.59,23.12,21.56,32c9.28,9.19,20.23,16.37,32.13,21.25l29.95-72.31
		C98.67,126.28,96.38,124.82,94.43,122.96z"/>
	
		<linearGradient id="SVGID_00000081619591761555010390000016090393025233859511_" gradientUnits="userSpaceOnUse" x1="137.8176" y1="167.8425" x2="91.3668" y2="166.4489">
		<stop  offset="0" style="stop-color:#32A5D3"/>
		<stop  offset="0.4109" style="stop-color:#53BD9F"/>
		<stop  offset="0.6182" style="stop-color:#72CCB0"/>
		<stop  offset="1" style="stop-color:#74E0C1;stop-opacity:0"/>
	</linearGradient>
	<path style="fill:url(#SVGID_00000081619591761555010390000016090393025233859511_);" d="M108.94,128.71
		c-2.69,0.02-5.33-0.48-7.79-1.45l-29.95,72.31c11.88,4.87,24.7,7.45,37.75,7.43c12.58-0.02,25.36-2.44,37.7-7.55l-29.95-72.31
		C114.15,128.19,111.53,128.69,108.94,128.71z"/>
</g>
<linearGradient id="SVGID_00000146492388898014719080000015709655375898395314_" gradientUnits="userSpaceOnUse" x1="242.4061" y1="67.011" x2="455.1727" y2="166.7453">
	<stop  offset="0" style="stop-color:#53BD9F"/>
	<stop  offset="1" style="stop-color:#32A5D3"/>
</linearGradient>
<path style="fill:url(#SVGID_00000146492388898014719080000015709655375898395314_);" d="M377.89,109.02c-21.4,0-42.62,0-64.12,0
	c0.18,1.01,0.28,1.8,0.45,2.56c0.93,4.26,2.65,8.13,5.64,11.38c3.14,3.4,7.04,5.42,11.57,6.06c4.97,0.7,9.91,0.54,14.63-1.5
	c3.71-1.6,6.31-4.27,7.71-8.09c0.15-0.42,0.33-0.83,0.55-1.37c7.93,0,15.87,0,24.01,0c-0.07,0.47-0.11,0.88-0.2,1.28
	c-2.77,11.95-9.85,20.44-20.83,25.7c-8.86,4.25-18.25,5.31-27.95,4.19c-6.92-0.8-13.31-3-19.15-6.82
	c-7.07-4.62-12.25-10.86-15.77-18.47c-3.24-7.01-4.76-14.43-4.48-22.14c0.32-8.94,2.49-17.39,7.27-25.06
	c5.82-9.34,14.14-15.33,24.79-17.85c10.34-2.45,20.61-1.95,30.61,1.9c9.03,3.48,15.77,9.59,20.26,18.09
	c4.48,8.47,6.03,17.57,5.23,27.09C378.04,106.86,377.98,107.76,377.89,109.02z M314.33,93.35c13.15,0,26.12,0,39.28,0
	c-0.21-1.27-0.3-2.39-0.58-3.46c-1.86-7.04-6.13-11.74-13.31-13.56c-3.01-0.77-6.04-0.84-9.16-0.51
	C321.92,76.75,315.61,82.74,314.33,93.35z M450.15,58.83c-7.94,0-15.74,0-23.8,0c0-2.37,0-4.53,0-6.7c0-2.18,0-4.37,0-6.55
	c0-2.18,0.02-4.37-0.01-6.55c-0.02-2.15,0.12-4.31-0.1-6.42c-8.3,0-16.34,0-24.65,0c0,0.91,0,1.72,0,2.52
	c0,7.08,0.01,14.16-0.02,21.24c0,0.79,0.28,1.67-0.46,2.41c-5.49,0.21-11.03-0.14-16.61,0.2c0,6.94,0,13.61,0,20.54
	c2.88,0,5.64-0.01,8.41,0c2.84,0.01,5.68-0.05,8.67,0.05c0,1.08,0,1.9,0,2.72c0,10.62-0.04,21.24,0.03,31.85
	c0.02,3.83,0.24,7.66,1.19,11.41c2.13,8.41,6.84,14.77,14.65,18.76c4.92,2.51,10.18,3.67,15.64,3.85
	c5.27,0.17,10.54,0.07,15.81,0.07c0.42,0,0.85-0.11,1.27-0.18c0-6.88,0-13.63,0-20.61c-0.85,0-1.58,0-2.31,0
	c-3.54-0.02-7.09,0.13-10.61-0.1c-5.89-0.38-9.69-3.56-10.54-9.25c-0.18-1.19-0.34-2.39-0.34-3.58
	c-0.03-11.07-0.02-22.14-0.01-33.21c0-0.57,0.11-1.14,0.18-1.8c7.91,0,15.66,0,23.62,0C450.15,72.51,450.15,65.78,450.15,58.83z
	 M251.83,59.22c0,0.86,0,1.75,0,2.65c0,29.51,0.01,59.03-0.02,88.54c0,1.95-0.15,3.91-0.45,5.84c-0.7,4.62-3.36,7.63-7.56,8.5
	c-1.38,0.29-2.84,0.2-4.27,0.23c-1.41,0.03-2.81,0.01-4.17,0.01c-0.46,3.24-0.32,17.81,0.15,19.36c3.97,0,7.97,0.16,11.95-0.05
	c2.91-0.16,5.85-0.56,8.67-1.3c9.8-2.57,16.28-8.69,19.08-18.54c1.06-3.73,1.21-7.56,1.21-11.41c-0.01-30.57,0-61.13,0-91.7
	c0-0.74,0-1.48,0-2.17C274.23,58.69,253.67,58.72,251.83,59.22z"/>
</svg>
