<?xml version="1.0" encoding="utf-8"?>
<!-- Generator: Adobe Illustrator 25.4.1, SVG Export Plug-In . SVG Version: 6.00 Build 0)  -->
<svg version="1.1" id="Layer_1" xmlns="http://www.w3.org/2000/svg" xmlns:xlink="http://www.w3.org/1999/xlink" x="0px" y="0px"
	 viewBox="0 0 1109.45 216" style="enable-background:new 0 0 1109.45 216;" xml:space="preserve">
<style type="text/css">
	.st0{fill:url(#SVGID_1_);}
	.st1{fill:url(#SVGID_00000152962659021048573570000002611413692420025992_);}
	.st2{fill:url(#SVGID_00000086665618863369643070000011360737832316943289_);}
	.st3{fill:url(#SVGID_00000158030702182078396270000010098003836885020854_);}
	.st4{fill:url(#SVGID_00000029758876627588276910000004500635889595656617_);}
	.st5{fill:url(#SVGID_00000119835597260392671080000007397495502621819787_);}
	.st6{fill:url(#SVGID_00000116930149682089459030000016141919898372112001_);}
	.st7{fill:url(#SVGID_00000066483895980826682170000010832703111197784481_);}
	.st8{fill:url(#SVGID_00000066501522750918604390000004484453083911540356_);}
	.st9{fill:url(#SVGID_00000109016150818024755860000010208660569746400136_);}
	.st10{fill:url(#SVGID_00000144317581261126315780000000540217061393208965_);}
	.st11{fill:url(#SVGID_00000057136486271830706380000001144690173719590042_);}
	.st12{fill:url(#SVGID_00000042732542384853824620000001693251604339807412_);}
	.st13{fill:url(#SVGID_00000043439810835145054760000015417870340517981866_);}
	.st14{fill:url(#SVGID_00000174563389865561507780000005085519178753996210_);}
	.st15{fill:url(#SVGID_00000164484637411263498530000011381592751972604059_);}
	.st16{fill:url(#SVGID_00000143578314184637444390000015039153479121455025_);}
	.st17{fill:url(#SVGID_00000142159122292478704360000011150950564948889479_);}
	.st18{fill:url(#SVGID_00000140733215766507113600000013895144670204744864_);}
	.st19{fill:url(#SVGID_00000054240534754247432210000002569415413305971587_);}
	.st20{fill:url(#SVGID_00000116226090083434892210000005001407011183864220_);}
	.st21{fill:url(#SVGID_00000176012552790360079880000001834227496255911840_);}
	.st22{fill:url(#SVGID_00000076564477445155948850000017791772836556934582_);}
	.st23{fill:url(#SVGID_00000033332796148372949890000003856103092789576847_);}
	.st24{fill:url(#SVGID_00000160189405508581269880000003121743282943216015_);}
	.st25{fill:url(#SVGID_00000090287604446443202590000004485845250090494102_);}
	.st26{fill:url(#SVGID_00000009588705916703835700000014321387174638488720_);}
	.st27{fill:url(#SVGID_00000132054149446770751890000016821477826508410026_);}
	.st28{fill:url(#SVGID_00000169537089053887736510000004292865682576954277_);}
	.st29{fill:url(#SVGID_00000075882463484317994950000007647566366786963371_);}
	.st30{fill:url(#SVGID_00000063594229986130111560000002414220236574581688_);}
	.st31{fill:url(#SVGID_00000090277410239914599860000018372715011340132773_);}
	.st32{fill:url(#SVGID_00000065056192304299387940000015182951416098486164_);}
	.st33{fill:url(#SVGID_00000098199126577677549240000017916952028282465431_);}
	.st34{fill:url(#SVGID_00000070821908687050577760000001574372898654609554_);}
	.st35{fill:url(#SVGID_00000011713028101338597970000015317552985725420712_);}
	.st36{fill:url(#SVGID_00000092458494435188510510000000801471787206434720_);}
	.st37{fill:url(#SVGID_00000081650136318846993290000002063560876892732301_);}
	.st38{fill:url(#SVGID_00000102527671536990537750000017969689227737540286_);}
	.st39{fill:url(#SVGID_00000045592536213505799540000014296035415442732187_);}
	.st40{fill:#231F20;}
	.st41{fill:url(#SVGID_00000183960165144745301720000006574985874444580540_);}
	.st42{fill:#FFFFFF;}
	.st43{fill:url(#SVGID_00000150090848910269977240000006857844836001055107_);}
	.st44{fill:url(#SVGID_00000078758392942524094410000013132171698235298737_);}
	.st45{fill:url(#SVGID_00000117671700576629544900000003848946613060396963_);}
	.st46{fill:url(#SVGID_00000132075341680445595770000012910915831330982528_);}
	.st47{fill:url(#SVGID_00000019658997085813245560000010190598674041570977_);}
	.st48{fill:url(#SVGID_00000181075731282613979030000003819515817439232675_);}
	.st49{fill:url(#SVGID_00000170262046113661769650000005038213336796198307_);}
	.st50{fill:url(#SVGID_00000109718470439105795080000002668274999167274172_);}
	.st51{fill:url(#SVGID_00000031201635483501935340000010809010282560401041_);}
	.st52{fill:url(#SVGID_00000041264602459623475320000015700902012680444309_);}
	.st53{fill:url(#SVGID_00000101097337873575859190000015600819284913803166_);}
	.st54{fill:url(#SVGID_00000123426145028897128560000001421782603091358361_);}
	.st55{fill:url(#SVGID_00000002352985769141528570000013313306096137973169_);}
	.st56{fill:url(#SVGID_00000127031086530703322340000013420351567259120055_);}
	.st57{fill:url(#SVGID_00000135682129623134828070000003761888194567334580_);}
	.st58{fill:url(#SVGID_00000115475117425265083780000009985641609439556738_);}
	.st59{fill:url(#SVGID_00000083802642075727848090000013252912554682190247_);}
	.st60{fill:url(#SVGID_00000180344244224603434400000000803573428725668287_);}
	.st61{fill:url(#SVGID_00000145774879774566829470000005622728862506872973_);}
	.st62{fill:url(#SVGID_00000114788794507958917300000010162565234060861371_);}
	.st63{fill:url(#SVGID_00000080910272282104717750000007329568032228176001_);}
	.st64{fill:url(#SVGID_00000016067198254082763880000011060955387840891520_);}
	.st65{fill:url(#SVGID_00000133490218880315614030000008761910258189318299_);}
	.st66{fill:url(#SVGID_00000115511900748685876450000008638580546498291604_);}
	.st67{fill:url(#SVGID_00000062892166850428021260000004850090699332135581_);}
	.st68{fill:url(#SVGID_00000026851791624182522200000015001516750589417371_);}
	.st69{fill:url(#SVGID_00000131339052803042352030000013404479562241443469_);}
	.st70{fill:url(#SVGID_00000064322217462315059420000002232068066037521322_);}
	.st71{fill:url(#SVGID_00000031169166741141446380000008537246150919611580_);}
	.st72{fill:url(#SVGID_00000127018641336959841930000000212757018031042944_);}
	.st73{fill:url(#SVGID_00000142859955723828588000000002286146954339046288_);}
	.st74{fill:url(#SVGID_00000051362216889624978820000009595856419738451368_);}
	.st75{fill:url(#SVGID_00000090253143209760307820000006241906825016879241_);}
	.st76{fill:url(#SVGID_00000132778599258399278850000002181573392257569445_);}
	.st77{fill:url(#SVGID_00000077302545490840077300000007951830567593543599_);}
	.st78{fill:url(#SVGID_00000018211342721546433000000003902320453150278834_);}
	.st79{fill:url(#SVGID_00000107555915180881060590000013823327836825179041_);}
	.st80{fill:url(#SVGID_00000029012693929071259340000017378197966702457732_);}
	.st81{fill:url(#SVGID_00000039121958798787772640000010348363545148993940_);}
	.st82{fill:url(#SVGID_00000050657217425972283240000016445097476357886619_);}
	.st83{fill:url(#SVGID_00000010311661295178778410000011424372624355303318_);}
	.st84{fill:url(#SVGID_00000112602890721431900670000002854330591059549323_);}
</style>
<g>
	<linearGradient id="SVGID_1_" gradientUnits="userSpaceOnUse" x1="79.3081" y1="48.4178" x2="125.2943" y2="49.3468">
		<stop  offset="0" style="stop-color:#32A5D3"/>
		<stop  offset="0.4109" style="stop-color:#53BD9F"/>
		<stop  offset="0.6182" style="stop-color:#72CCB0"/>
		<stop  offset="1" style="stop-color:#74E0C1;stop-opacity:0"/>
	</linearGradient>
	<path class="st0" d="M108.48,9c-12.69-0.03-25.6,2.39-38.06,7.56l29.95,72.31c2.65-1.1,5.41-1.61,8.11-1.58
		c2.79,0.03,5.53,0.62,8.05,1.72l29.95-72.31C134.54,11.69,121.63,9.03,108.48,9z"/>
	
		<linearGradient id="SVGID_00000054261286150604091990000009451128960563766404_" gradientUnits="userSpaceOnUse" x1="48.2488" y1="89.1756" x2="78.9063" y2="51.086">
		<stop  offset="0" style="stop-color:#32A5D3"/>
		<stop  offset="0.4109" style="stop-color:#53BD9F"/>
		<stop  offset="0.6182" style="stop-color:#72CCB0"/>
		<stop  offset="1" style="stop-color:#74E0C1;stop-opacity:0"/>
	</linearGradient>
	<path style="fill:url(#SVGID_00000054261286150604091990000009451128960563766404_);" d="M38.17,38.13
		c-9.28,9.32-16.52,20.33-21.44,32.31l72.31,29.95c1.01-2.56,2.52-4.92,4.48-6.91c1.89-1.93,4.2-3.52,6.85-4.62L70.42,16.56
		C57.96,21.72,47.12,29.13,38.17,38.13z"/>
	
		<linearGradient id="SVGID_00000032609721359214634660000006240515527377127820_" gradientUnits="userSpaceOnUse" x1="127.2979" y1="47.2009" x2="164.923" y2="79.2519">
		<stop  offset="0" style="stop-color:#32A5D3"/>
		<stop  offset="0.4109" style="stop-color:#53BD9F"/>
		<stop  offset="0.6182" style="stop-color:#72CCB0"/>
		<stop  offset="1" style="stop-color:#74E0C1;stop-opacity:0"/>
	</linearGradient>
	<path style="fill:url(#SVGID_00000032609721359214634660000006240515527377127820_);" d="M178.61,38.31
		c-9.25-9.32-20.2-16.64-32.13-21.62L116.53,89c2.5,1.09,4.8,2.66,6.72,4.67c1.73,1.81,3.17,3.95,4.18,6.4
		c0.06,0.15,0.11,0.3,0.17,0.44l72.31-29.95c-0.06-0.15-0.12-0.3-0.18-0.44C194.67,57.87,187.41,47.18,178.61,38.31z"/>
	
		<linearGradient id="SVGID_00000160911387673554144570000018419771283716161450_" gradientUnits="userSpaceOnUse" x1="167.62" y1="79.6323" x2="167.1555" y2="127.012">
		<stop  offset="0" style="stop-color:#32A5D3"/>
		<stop  offset="0.4109" style="stop-color:#53BD9F"/>
		<stop  offset="0.6182" style="stop-color:#72CCB0"/>
		<stop  offset="1" style="stop-color:#74E0C1;stop-opacity:0"/>
	</linearGradient>
	<path style="fill:url(#SVGID_00000160911387673554144570000018419771283716161450_);" d="M127.61,100.52
		c1.01,2.6,1.46,5.29,1.4,7.92c-0.06,2.7-0.65,5.35-1.71,7.79l72.31,29.95c4.96-11.87,7.63-24.69,7.69-37.75
		c0.06-12.63-2.31-25.47-7.38-37.88L127.61,100.52z"/>
	
		<linearGradient id="SVGID_00000160894665200335842270000016671054375506649744_" gradientUnits="userSpaceOnUse" x1="50.4286" y1="138.7795" x2="48.5706" y2="89.0773">
		<stop  offset="0" style="stop-color:#32A5D3"/>
		<stop  offset="0.4109" style="stop-color:#53BD9F"/>
		<stop  offset="0.6182" style="stop-color:#72CCB0"/>
		<stop  offset="1" style="stop-color:#74E0C1;stop-opacity:0"/>
	</linearGradient>
	<path style="fill:url(#SVGID_00000160894665200335842270000016671054375506649744_);" d="M89.04,100.39L16.73,70.44
		c-4.91,11.96-7.48,24.87-7.43,38.01c0.05,12.49,2.48,25.18,7.55,37.44c0.06,0.15,0.13,0.29,0.19,0.44l72.31-29.95
		c-0.06-0.15-0.13-0.29-0.19-0.44c-1.02-2.45-1.52-4.98-1.57-7.49C87.53,105.66,88.04,102.93,89.04,100.39z"/>
	
		<linearGradient id="SVGID_00000172402642491711584790000006610211511294027659_" gradientUnits="userSpaceOnUse" x1="168.1666" y1="126.2733" x2="137.5092" y2="165.7564">
		<stop  offset="0" style="stop-color:#32A5D3"/>
		<stop  offset="0.4109" style="stop-color:#53BD9F"/>
		<stop  offset="0.6182" style="stop-color:#72CCB0"/>
		<stop  offset="1" style="stop-color:#74E0C1;stop-opacity:0"/>
	</linearGradient>
	<path style="fill:url(#SVGID_00000172402642491711584790000006610211511294027659_);" d="M127.3,116.24
		c-1.05,2.43-2.57,4.65-4.48,6.54c-1.84,1.81-4.05,3.31-6.59,4.36l29.95,72.31c12.34-5.11,23.09-12.43,32-21.31
		c9.24-9.21,16.48-20.1,21.44-31.94L127.3,116.24z"/>
	
		<linearGradient id="SVGID_00000000217879337503067670000003454237576628745631_" gradientUnits="userSpaceOnUse" x1="86.9627" y1="170.838" x2="53.0536" y2="135.5355">
		<stop  offset="0" style="stop-color:#32A5D3"/>
		<stop  offset="0.4109" style="stop-color:#53BD9F"/>
		<stop  offset="0.6182" style="stop-color:#72CCB0"/>
		<stop  offset="1" style="stop-color:#74E0C1;stop-opacity:0"/>
	</linearGradient>
	<path style="fill:url(#SVGID_00000000217879337503067670000003454237576628745631_);" d="M93.97,122.96
		c-1.9-1.82-3.49-4.04-4.61-6.59l-72.31,29.95c5.19,12.36,12.59,23.12,21.56,32c9.28,9.19,20.23,16.37,32.13,21.25l29.95-72.31
		C98.21,126.28,95.92,124.82,93.97,122.96z"/>
	
		<linearGradient id="SVGID_00000106148702513337154910000000051093574771199383_" gradientUnits="userSpaceOnUse" x1="137.3581" y1="167.8425" x2="90.9074" y2="166.4489">
		<stop  offset="0" style="stop-color:#32A5D3"/>
		<stop  offset="0.4109" style="stop-color:#53BD9F"/>
		<stop  offset="0.6182" style="stop-color:#72CCB0"/>
		<stop  offset="1" style="stop-color:#74E0C1;stop-opacity:0"/>
	</linearGradient>
	<path style="fill:url(#SVGID_00000106148702513337154910000000051093574771199383_);" d="M108.48,128.71
		c-2.69,0.02-5.33-0.48-7.79-1.45l-29.95,72.31c11.88,4.87,24.7,7.45,37.75,7.43c12.58-0.02,25.36-2.44,37.7-7.55l-29.95-72.31
		C113.69,128.19,111.07,128.69,108.48,128.71z"/>
</g>
<linearGradient id="SVGID_00000028299145287430208790000013678795060529553809_" gradientUnits="userSpaceOnUse" x1="242.6152" y1="64.5842" x2="452.0573" y2="168.7512">
	<stop  offset="0" style="stop-color:#53BD9F"/>
	<stop  offset="1" style="stop-color:#32A5D3"/>
</linearGradient>
<path style="fill:url(#SVGID_00000028299145287430208790000013678795060529553809_);" d="M377.89,109.02c-21.4,0-42.62,0-64.12,0
	c0.18,1.01,0.28,1.8,0.45,2.56c0.93,4.26,2.65,8.13,5.64,11.38c3.14,3.4,7.04,5.42,11.57,6.06c4.97,0.7,9.91,0.54,14.63-1.5
	c3.71-1.6,6.31-4.27,7.71-8.09c0.15-0.42,0.33-0.83,0.55-1.37c7.93,0,15.87,0,24.01,0c-0.07,0.47-0.11,0.88-0.2,1.28
	c-2.77,11.95-9.85,20.44-20.83,25.7c-8.86,4.25-18.25,5.31-27.95,4.19c-6.92-0.8-13.31-3-19.15-6.82
	c-7.07-4.62-12.25-10.86-15.77-18.47c-3.24-7.01-4.76-14.43-4.48-22.14c0.32-8.94,2.49-17.39,7.27-25.06
	c5.82-9.34,14.14-15.33,24.79-17.85c10.34-2.45,20.61-1.95,30.61,1.9c9.03,3.48,15.77,9.59,20.26,18.09
	c4.48,8.47,6.03,17.57,5.23,27.09C378.04,106.86,377.98,107.76,377.89,109.02z M314.33,93.35c13.15,0,26.12,0,39.28,0
	c-0.21-1.27-0.3-2.39-0.58-3.46c-1.86-7.04-6.13-11.74-13.31-13.56c-3.01-0.77-6.04-0.84-9.16-0.51
	C321.92,76.75,315.61,82.74,314.33,93.35z M450.15,58.83c-7.94,0-15.74,0-23.8,0c0-2.37,0-4.53,0-6.7c0-2.18,0-4.37,0-6.55
	c0-2.18,0.02-4.37-0.01-6.55c-0.02-2.15,0.12-4.31-0.1-6.42c-8.3,0-16.34,0-24.65,0c0,0.91,0,1.72,0,2.52
	c0,7.08,0.01,14.16-0.02,21.24c0,0.79,0.28,1.67-0.46,2.41c-5.49,0.21-11.03-0.14-16.61,0.2c0,6.94,0,13.61,0,20.54
	c2.88,0,5.64-0.01,8.41,0c2.84,0.01,5.68-0.05,8.67,0.05c0,1.08,0,1.9,0,2.72c0,10.62-0.04,21.24,0.03,31.85
	c0.02,3.83,0.24,7.66,1.19,11.41c2.13,8.41,6.84,14.77,14.65,18.76c4.92,2.51,10.18,3.67,15.64,3.85
	c5.27,0.17,10.54,0.07,15.81,0.07c0.42,0,0.85-0.11,1.27-0.18c0-6.88,0-13.63,0-20.61c-0.85,0-1.58,0-2.31,0
	c-3.54-0.02-7.09,0.13-10.61-0.1c-5.89-0.38-9.69-3.56-10.54-9.25c-0.18-1.19-0.34-2.39-0.34-3.58
	c-0.03-11.07-0.02-22.14-0.01-33.21c0-0.57,0.11-1.14,0.18-1.8c7.91,0,15.66,0,23.62,0C450.15,72.51,450.15,65.78,450.15,58.83z
	 M251.83,59.22c0,0.86,0,1.75,0,2.65c0,29.51,0.01,59.03-0.02,88.54c0,1.95-0.15,3.91-0.45,5.84c-0.7,4.62-3.36,7.63-7.56,8.5
	c-1.38,0.29-2.84,0.2-4.27,0.23c-1.41,0.03-2.81,0.01-4.17,0.01c-0.46,3.24-0.32,17.81,0.15,19.36c3.97,0,7.97,0.16,11.95-0.05
	c2.91-0.16,5.85-0.56,8.67-1.3c9.8-2.57,16.28-8.69,19.08-18.54c1.06-3.73,1.21-7.56,1.21-11.41c-0.01-30.57,0-61.13,0-91.7
	c0-0.74,0-1.48,0-2.17C274.23,58.69,253.67,58.72,251.83,59.22z"/>
<g>
	<path class="st40" d="M514.92,57.24c-15.16,0-29.41,7.49-35.99,19.55V59.07h-8.77v121.12h9.13v-49.87
		c6.76,11.69,20.83,18.82,35.62,18.82c25.03,0,43.84-20.28,43.84-46.04C558.77,77.52,539.95,57.24,514.92,57.24z M514.01,140.54
		c-17.35,0-34.71-11.14-34.71-37.45c0-26.12,17.35-37.27,34.71-37.27c20.46,0,35.26,16.26,35.26,37.45S534.47,140.54,514.01,140.54z
		"/>
	<g>
		<path class="st40" d="M618.68,59.07v8.04h-4.57c-14.61,0-29.96,10.05-29.96,28.31v51.88h-9.13V59.07h8.77v14.98
			c6.39-10.41,17.54-15.53,29.23-15.53C615.58,58.52,617.04,58.89,618.68,59.07z"/>
	</g>
	<path class="st40" d="M665.08,57.24c-25.58,0-45.67,19.91-45.67,45.85c0,25.76,20.09,46.04,45.49,46.04
		c25.58,0,45.85-20.28,45.85-46.04C710.75,77.34,690.47,57.24,665.08,57.24z M664.9,140.54c-20.46,0-35.99-16.08-35.99-37.27
		c0-21.37,15.53-37.45,36.17-37.45c20.28,0,36.17,16.08,36.17,37.45C701.25,124.28,685.36,140.54,664.9,140.54z"/>
	<g>
		<path class="st40" d="M771.21,139.26v8.04c-4.2,1.1-8.4,1.83-13.7,1.83c-15.34,0-27.04-7.31-27.04-26.49V67.47h-15.34v-8.4h15.34
			V34.04h9.32v25.03h28.5v8.4h-28.5v54.8c0,14.43,8.4,18.45,19.18,18.45C763.18,140.73,766.83,140.18,771.21,139.26z"/>
	</g>
	<path class="st40" d="M819.44,57.24c-25.58,0-45.67,19.91-45.67,45.85c0,25.76,20.09,46.04,45.49,46.04
		c25.58,0,45.85-20.28,45.85-46.04C865.11,77.34,844.83,57.24,819.44,57.24z M819.26,140.54c-20.46,0-35.99-16.08-35.99-37.27
		c0-21.37,15.53-37.45,36.17-37.45c20.28,0,36.17,16.08,36.17,37.45C855.61,124.28,839.72,140.54,819.26,140.54z"/>
	<g>
		<path class="st40" d="M874.61,103.09c0-25.58,20.09-45.85,45.67-45.85c15.16,0,27.58,7.12,35.62,18.09l-6.58,5.3
			c-6.94-9.13-16.62-14.8-29.05-14.8c-20.64,0-36.17,16.44-36.17,37.27c0,21.01,15.53,37.45,35.99,37.45
			c12.42,0,22.1-5.66,29.23-14.8l6.58,5.3c-8.04,10.96-20.64,18.09-35.8,18.09C894.7,149.13,874.61,128.67,874.61,103.09z"/>
	</g>
	<path class="st40" d="M1008.33,57.24c-25.58,0-45.67,19.91-45.67,45.85c0,25.76,20.09,46.04,45.49,46.04
		c25.58,0,45.85-20.28,45.85-46.04C1053.99,77.34,1033.72,57.24,1008.33,57.24z M1008.14,140.54c-20.46,0-35.99-16.08-35.99-37.27
		c0-21.37,15.53-37.45,36.17-37.45c20.28,0,36.17,16.08,36.17,37.45C1044.49,124.28,1028.6,140.54,1008.14,140.54z"/>
	<g>
		<rect x="1070.25" y="10.29" class="st40" width="9.13" height="137.01"/>
	</g>
</g>
</svg>
