<?xml version="1.0" encoding="utf-8"?>
<!-- Generator: Adobe Illustrator 25.4.1, SVG Export Plug-In . SVG Version: 6.00 Build 0)  -->
<svg version="1.1" id="Layer_1" xmlns="http://www.w3.org/2000/svg" xmlns:xlink="http://www.w3.org/1999/xlink" x="0px" y="0px"
	 viewBox="0 0 459 216" style="enable-background:new 0 0 459 216;" xml:space="preserve">
<style type="text/css">
	.st0{fill:url(#SVGID_1_);}
	.st1{fill:url(#SVGID_00000105403605159443363450000015159791987014560424_);}
	.st2{fill:url(#SVGID_00000182522897306585591270000007045660753289986204_);}
	.st3{fill:url(#SVGID_00000065053956760583123800000017510326242762827665_);}
	.st4{fill:url(#SVGID_00000132090526758694719970000009487717216671093377_);}
	.st5{fill:url(#SVGID_00000177462010551818806220000010521120598687185332_);}
	.st6{fill:url(#SVGID_00000130622757982716784010000000292900305593973672_);}
	.st7{fill:url(#SVGID_00000026149760315644586480000014544221565381729932_);}
	.st8{fill:url(#SVGID_00000182507698926144881320000017021270156272237987_);}
	.st9{fill:url(#SVGID_00000145021292806992817030000007102911448224993437_);}
	.st10{fill:url(#SVGID_00000089563164224704112240000005037647430010366616_);}
	.st11{fill:url(#SVGID_00000005256488037401078310000009233199212703248562_);}
	.st12{fill:url(#SVGID_00000130640760098199653840000009462029161249038213_);}
	.st13{fill:url(#SVGID_00000029741055102174200810000014408306555613797769_);}
	.st14{fill:url(#SVGID_00000036247515813283207320000012919132026478123935_);}
	.st15{fill:url(#SVGID_00000132052033998096588410000017306026398573664392_);}
	.st16{fill:url(#SVGID_00000120521802913247522420000016842146892573226416_);}
	.st17{fill:url(#SVGID_00000174588141054360911770000002359587803354440065_);}
	.st18{fill:url(#SVGID_00000072981941111120964800000012598389417532033939_);}
	.st19{fill:url(#SVGID_00000071520538371201076760000001675754384513353088_);}
	.st20{fill:url(#SVGID_00000005246122961493879190000009217824852061097381_);}
	.st21{fill:url(#SVGID_00000179615371193905458070000003345609695286751388_);}
	.st22{fill:url(#SVGID_00000088133670361965606740000002492558824818087821_);}
	.st23{fill:url(#SVGID_00000137852280075275961510000000477381397196585872_);}
	.st24{fill:url(#SVGID_00000040548704701663382040000001341473245377669052_);}
	.st25{fill:url(#SVGID_00000153670283144543408710000011257748892755640706_);}
	.st26{fill:url(#SVGID_00000097462426803724253590000006124470113428554939_);}
	.st27{fill:url(#SVGID_00000167360535705016896370000005854322913164666799_);}
	.st28{fill:url(#SVGID_00000073705940133578060110000001191955983728643456_);}
	.st29{fill:url(#SVGID_00000122707366816362847460000000353239436981353393_);}
	.st30{fill:url(#SVGID_00000105426423865188664740000000446706551448665519_);}
	.st31{fill:url(#SVGID_00000039102237803284779540000012698936573450759844_);}
	.st32{fill:url(#SVGID_00000068648521064041482110000014194622478042782636_);}
	.st33{fill:url(#SVGID_00000159431665989403094010000008109081948369043877_);}
	.st34{fill:url(#SVGID_00000147923551047090510800000011289524060103605944_);}
	.st35{fill:url(#SVGID_00000042014310403447724180000003494943071512411798_);}
	.st36{fill:url(#SVGID_00000106138558156718383750000004131864721844576932_);}
	.st37{fill:url(#SVGID_00000169533361105220380100000012676296291109880221_);}
	.st38{fill:url(#SVGID_00000088097646181200800450000003387655085613704078_);}
	.st39{fill:url(#SVGID_00000048460228423189708390000002318753672198742149_);}
	.st40{fill:#231F20;}
	.st41{fill:url(#SVGID_00000085251322113400394790000017360491549972833428_);}
	.st42{fill:#FFFFFF;}
	.st43{fill:url(#SVGID_00000161616750931354730450000005481929586113085623_);}
	.st44{fill:url(#SVGID_00000144332486376415900590000002473815658684633781_);}
	.st45{fill:url(#SVGID_00000013193229810662912420000011303194400609445308_);}
	.st46{fill:url(#SVGID_00000103235228554802712380000016092684818204709796_);}
	.st47{fill:url(#SVGID_00000145019420062050766490000000855171694164050867_);}
	.st48{fill:url(#SVGID_00000055693452900254244870000008141285534784081834_);}
	.st49{fill:url(#SVGID_00000051352241333361647150000012614906895628654989_);}
	.st50{fill:url(#SVGID_00000041261194234534220260000014488235840290469507_);}
	.st51{fill:url(#SVGID_00000088842975607787743570000011976649636390981290_);}
	.st52{fill:url(#SVGID_00000095339023902795549430000012546303816793965219_);}
	.st53{fill:url(#SVGID_00000134210317682001229910000000135785279038863803_);}
	.st54{fill:url(#SVGID_00000124875681441294028920000010455415282383535548_);}
	.st55{fill:url(#SVGID_00000093138473014060928150000002536117654564495012_);}
	.st56{fill:url(#SVGID_00000065076723046966287560000009897010994366516662_);}
	.st57{fill:url(#SVGID_00000031187004578928039760000015733538898565242027_);}
	.st58{fill:url(#SVGID_00000106133744674547704960000003137743448044597429_);}
	.st59{fill:url(#SVGID_00000134228064894477127720000002001796582840302772_);}
	.st60{fill:url(#SVGID_00000017515712696581237030000016225497386554547077_);}
	.st61{fill:url(#SVGID_00000178199547589244574090000009939275919009769659_);}
	.st62{fill:url(#SVGID_00000107558924636071902090000017070637727575617154_);}
	.st63{fill:url(#SVGID_00000029768258576372187890000008483286765641015170_);}
	.st64{fill:url(#SVGID_00000007429578582950006940000006430882626417094840_);}
	.st65{fill:url(#SVGID_00000171001403552915436780000000232070561014174351_);}
	.st66{fill:url(#SVGID_00000137823520008744005720000011459729359468306364_);}
	.st67{fill:url(#SVGID_00000063592389976383991220000009110651648438645679_);}
	.st68{fill:url(#SVGID_00000137117760500878702990000014880196497795248018_);}
	.st69{fill:url(#SVGID_00000067934688150055493370000015914465458780590507_);}
	.st70{fill:url(#SVGID_00000108292798529354318840000003141908939980648894_);}
	.st71{fill:url(#SVGID_00000121280970569741765430000017082646729853015964_);}
	.st72{fill:url(#SVGID_00000048458849559367559840000006580156994569405356_);}
	.st73{fill:url(#SVGID_00000020368092573218834320000007577577901393313201_);}
	.st74{fill:url(#SVGID_00000145762994027003517130000002388882344730331784_);}
	.st75{fill:url(#SVGID_00000133499580226269828470000016897926145487741056_);}
	.st76{fill:url(#SVGID_00000078025133915323391480000017496263489474885524_);}
	.st77{fill:url(#SVGID_00000106837544493384301520000011549412672247905470_);}
	.st78{fill:url(#SVGID_00000132047035871519898970000011387213560688338874_);}
	.st79{fill:url(#SVGID_00000075135644304023234640000001183222564837822868_);}
	.st80{fill:url(#SVGID_00000072260080410325231160000012427239398741364923_);}
	.st81{fill:url(#SVGID_00000023959300439994926200000016093677322984451988_);}
	.st82{fill:url(#SVGID_00000109016263667897254160000011328994295482801801_);}
	.st83{fill:url(#SVGID_00000052795959211942735270000006690718153066092220_);}
	.st84{fill:url(#SVGID_00000117667305579136812360000002276573796707279762_);}
</style>
<g>
	
		<linearGradient id="SVGID_1_" gradientUnits="userSpaceOnUse" x1="380.3437" y1="544.4994" x2="422.9241" y2="563.6954" gradientTransform="matrix(0.9239 -0.3827 0.3827 0.9239 -476.0447 -309.2316)">
		<stop  offset="0" style="stop-color:#FFFFFF"/>
		<stop  offset="1" style="stop-color:#FFFFFF;stop-opacity:0"/>
	</linearGradient>
	<path class="st0" d="M108.63,9c-12.69-0.03-25.6,2.39-38.06,7.56l29.95,72.31c2.65-1.1,5.41-1.61,8.11-1.58
		c2.79,0.03,5.53,0.62,8.05,1.72l29.95-72.31C134.7,11.69,121.78,9.03,108.63,9z"/>
	
		<linearGradient id="SVGID_00000015351022533095203010000014638748835537323653_" gradientUnits="userSpaceOnUse" x1="333.6577" y1="562.4695" x2="377.6342" y2="548.5087" gradientTransform="matrix(0.9239 -0.3827 0.3827 0.9239 -476.0447 -309.2316)">
		<stop  offset="0" style="stop-color:#FFFFFF"/>
		<stop  offset="1" style="stop-color:#FFFFFF;stop-opacity:0"/>
	</linearGradient>
	<path style="fill:url(#SVGID_00000015351022533095203010000014638748835537323653_);" d="M38.32,38.13
		c-9.28,9.32-16.52,20.33-21.44,32.31l72.31,29.95c1.01-2.56,2.52-4.92,4.48-6.91c1.89-1.93,4.2-3.52,6.85-4.62L70.57,16.56
		C58.11,21.72,47.27,29.13,38.32,38.13z"/>
	
		<linearGradient id="SVGID_00000086656757714706537550000008757259559579530916_" gradientUnits="userSpaceOnUse" x1="426.6711" y1="563.8172" x2="442.726" y2="608.4917" gradientTransform="matrix(0.9239 -0.3827 0.3827 0.9239 -476.0447 -309.2316)">
		<stop  offset="0" style="stop-color:#FFFFFF"/>
		<stop  offset="1" style="stop-color:#FFFFFF;stop-opacity:0"/>
	</linearGradient>
	<path style="fill:url(#SVGID_00000086656757714706537550000008757259559579530916_);" d="M178.76,38.31
		c-9.25-9.32-20.2-16.64-32.13-21.62L116.69,89c2.5,1.09,4.8,2.66,6.72,4.67c1.73,1.81,3.17,3.95,4.18,6.4
		c0.06,0.15,0.11,0.3,0.17,0.45l72.32-29.95c-0.06-0.15-0.12-0.3-0.18-0.44C194.82,57.87,187.56,47.18,178.76,38.31z"/>
	
		<linearGradient id="SVGID_00000016059328086597599470000016343196380618626977_" gradientUnits="userSpaceOnUse" x1="447.8474" y1="607.319" x2="424.4631" y2="651.2955" gradientTransform="matrix(0.9239 -0.3827 0.3827 0.9239 -476.0447 -309.2316)">
		<stop  offset="0" style="stop-color:#FFFFFF"/>
		<stop  offset="1" style="stop-color:#FFFFFF;stop-opacity:0"/>
	</linearGradient>
	<path style="fill:url(#SVGID_00000016059328086597599470000016343196380618626977_);" d="M127.76,100.52
		c1.01,2.6,1.46,5.29,1.4,7.92c-0.06,2.7-0.65,5.35-1.71,7.79l72.31,29.95c4.96-11.87,7.63-24.69,7.69-37.75
		c0.06-12.63-2.31-25.47-7.38-37.88L127.76,100.52z"/>
	
		<linearGradient id="SVGID_00000097500178722587249260000012552153952134140304_" gradientUnits="userSpaceOnUse" x1="317.6571" y1="608.9647" x2="334.061" y2="563.9411" gradientTransform="matrix(0.9239 -0.3827 0.3827 0.9239 -476.0447 -309.2316)">
		<stop  offset="0" style="stop-color:#FFFFFF"/>
		<stop  offset="1" style="stop-color:#FFFFFF;stop-opacity:0"/>
	</linearGradient>
	<path style="fill:url(#SVGID_00000097500178722587249260000012552153952134140304_);" d="M89.19,100.39L16.88,70.44
		c-4.91,11.96-7.48,24.87-7.43,38.01c0.05,12.49,2.48,25.18,7.55,37.44c0.06,0.15,0.13,0.29,0.19,0.44l72.32-29.95
		c-0.06-0.15-0.13-0.29-0.19-0.44c-1.02-2.45-1.52-4.98-1.57-7.49C87.69,105.66,88.19,102.93,89.19,100.39z"/>
	
		<linearGradient id="SVGID_00000128471681355143265050000010346894833333609896_" gradientUnits="userSpaceOnUse" x1="427.5563" y1="656.7539" x2="382.8817" y2="669.3186" gradientTransform="matrix(0.9239 -0.3827 0.3827 0.9239 -476.0447 -309.2316)">
		<stop  offset="0" style="stop-color:#FFFFFF"/>
		<stop  offset="1" style="stop-color:#FFFFFF;stop-opacity:0"/>
	</linearGradient>
	<path style="fill:url(#SVGID_00000128471681355143265050000010346894833333609896_);" d="M127.45,116.24
		c-1.05,2.43-2.57,4.65-4.48,6.54c-1.84,1.81-4.05,3.31-6.59,4.36l29.95,72.31c12.34-5.11,23.09-12.43,32-21.31
		c9.24-9.21,16.49-20.1,21.44-31.94L127.45,116.24z"/>
	
		<linearGradient id="SVGID_00000025409859618215371870000009237037002542311063_" gradientUnits="userSpaceOnUse" x1="335.8119" y1="652.0889" x2="316.2668" y2="612.3007" gradientTransform="matrix(0.9239 -0.3827 0.3827 0.9239 -476.0447 -309.2316)">
		<stop  offset="0" style="stop-color:#FFFFFF"/>
		<stop  offset="1" style="stop-color:#FFFFFF;stop-opacity:0"/>
	</linearGradient>
	<path style="fill:url(#SVGID_00000025409859618215371870000009237037002542311063_);" d="M94.12,122.96
		c-1.9-1.82-3.49-4.04-4.61-6.59l-72.32,29.95c5.19,12.36,12.59,23.12,21.56,32c9.28,9.19,20.23,16.37,32.13,21.25l29.95-72.31
		C98.36,126.28,96.07,124.82,94.12,122.96z"/>
	
		<linearGradient id="SVGID_00000053514440991619540180000000877827131931540103_" gradientUnits="userSpaceOnUse" x1="379.8897" y1="674.7172" x2="339.7525" y2="654.4741" gradientTransform="matrix(0.9239 -0.3827 0.3827 0.9239 -476.0447 -309.2316)">
		<stop  offset="0" style="stop-color:#FFFFFF"/>
		<stop  offset="1" style="stop-color:#FFFFFF;stop-opacity:0"/>
	</linearGradient>
	<path style="fill:url(#SVGID_00000053514440991619540180000000877827131931540103_);" d="M108.63,128.71
		c-2.69,0.02-5.33-0.48-7.79-1.45l-29.95,72.31c11.88,4.87,24.7,7.45,37.75,7.43c12.58-0.02,25.36-2.44,37.7-7.55l-29.95-72.31
		C113.84,128.19,111.22,128.69,108.63,128.71z"/>
</g>
<g>
	<g>
		<g>
			<g>
				<path class="st42" d="M377.89,109.02c-21.4,0-42.62,0-64.12,0c0.18,1.01,0.28,1.8,0.45,2.56c0.93,4.26,2.65,8.13,5.64,11.38
					c3.14,3.4,7.04,5.42,11.57,6.06c4.97,0.7,9.91,0.54,14.63-1.5c3.71-1.6,6.31-4.27,7.71-8.09c0.15-0.42,0.33-0.83,0.55-1.37
					c7.93,0,15.87,0,24.01,0c-0.07,0.47-0.11,0.88-0.2,1.28c-2.77,11.95-9.85,20.44-20.83,25.7c-8.86,4.25-18.25,5.31-27.95,4.19
					c-6.92-0.8-13.31-3-19.15-6.82c-7.07-4.62-12.25-10.86-15.77-18.47c-3.24-7.01-4.76-14.43-4.48-22.14
					c0.32-8.94,2.49-17.39,7.27-25.06c5.82-9.34,14.14-15.33,24.79-17.85c10.34-2.45,20.61-1.95,30.61,1.9
					c9.03,3.48,15.77,9.59,20.26,18.09c4.48,8.47,6.03,17.57,5.23,27.09C378.04,106.86,377.98,107.76,377.89,109.02z M314.33,93.35
					c13.15,0,26.12,0,39.28,0c-0.21-1.27-0.3-2.39-0.58-3.46c-1.86-7.04-6.13-11.74-13.31-13.56c-3.01-0.77-6.04-0.84-9.16-0.51
					C321.92,76.75,315.61,82.74,314.33,93.35z"/>
				<path class="st42" d="M450.15,79.51c-7.96,0-15.7,0-23.62,0c-0.07,0.66-0.18,1.23-0.18,1.8c-0.01,11.07-0.02,22.14,0.01,33.21
					c0,1.2,0.16,2.4,0.34,3.58c0.85,5.69,4.65,8.87,10.54,9.25c3.53,0.23,7.08,0.08,10.61,0.1c0.73,0,1.47,0,2.31,0
					c0,6.98,0,13.72,0,20.61c-0.42,0.06-0.85,0.18-1.27,0.18c-5.27,0-10.55,0.1-15.81-0.07c-5.46-0.18-10.72-1.35-15.64-3.85
					c-7.81-3.98-12.52-10.35-14.65-18.76c-0.95-3.75-1.16-7.58-1.19-11.41c-0.07-10.62-0.02-21.24-0.03-31.85c0-0.82,0-1.64,0-2.72
					c-3-0.1-5.84-0.04-8.67-0.05c-2.76-0.01-5.53,0-8.41,0c0-6.93,0-13.6,0-20.54c5.58-0.34,11.12,0.01,16.61-0.2
					c0.74-0.75,0.45-1.62,0.46-2.41c0.02-7.08,0.02-14.16,0.02-21.24c0-0.81,0-1.61,0-2.52c8.31,0,16.35,0,24.65,0
					c0.22,2.12,0.07,4.28,0.1,6.42c0.02,2.18,0.01,4.37,0.01,6.55c0,2.18,0,4.37,0,6.55c0,2.16,0,4.33,0,6.7c8.06,0,15.86,0,23.8,0
					C450.15,65.78,450.15,72.51,450.15,79.51z"/>
				<path class="st42" d="M276.41,59.19c0,0.69,0,1.43,0,2.17c0,30.57-0.01,61.13,0,91.7c0,3.85-0.15,7.67-1.21,11.41
					c-2.8,9.84-9.28,15.97-19.08,18.54c-2.81,0.74-5.76,1.14-8.67,1.3c-3.98,0.22-7.97,0.05-11.95,0.05
					c-0.47-1.55-0.61-16.12-0.15-19.36c1.35,0,2.76,0.03,4.17-0.01c1.43-0.04,2.89,0.05,4.27-0.23c4.2-0.87,6.86-3.88,7.56-8.5
					c0.29-1.93,0.44-3.89,0.45-5.84c0.03-29.51,0.02-59.03,0.02-88.54c0-0.9,0-1.79,0-2.65C253.67,58.72,274.23,58.69,276.41,59.19z
					"/>
			</g>
		</g>
	</g>
</g>
</svg>
